<svg data-name="レイヤー 1" xmlns="http://www.w3.org/2000/svg" viewBox="0 0 960 540"><defs><linearGradient id="a" x1="858.73" y1="1247.4" x2="944.13" y2="1247.4" gradientTransform="translate(-600 -977.83)" gradientUnits="userSpaceOnUse"><stop offset="0" stop-color="#fff"/><stop offset=".41" stop-color="#00dbff"/><stop offset="1" stop-color="#6cdbff"/></linearGradient></defs><path fill="#163469" d="M0 0h960v540H0z"/><path d="M413.45 299.12l-18.62-54.58H401l16.55 49.51 16.27-49.51h6.21l-18.48 54.58zM463.82 244.41h18.81v4.87h-17.88c-6.27 0-10.47.53-10.47 8v29c0 7.81 3.94 7.87 10.47 7.87h17.88v4.94h-18.81c-8.54 0-15.28-2.34-15.28-12v-30.54c0-9.74 6.74-12.14 15.28-12.14zM549.89 244.41c8.94 0 13.74 5.47 13.74 14.28 0 4.87-1.94 9.94-6.14 12.34 5.07 1.67 7 7.34 7 12.48 0 9.87-3 15.68-13.68 15.68h-23v-54.71zm7.93 14.41c0-5.94-2.6-9.54-8.67-9.54h-15.61v19.68h16.75c5 0 7.53-5.8 7.53-10.14zm.87 24.62c0-4.87-2.27-9.67-7.67-9.67h-17.48v20.48h17.28c7 0 7.87-4.81 7.87-10.81zM607.4 268.9v18.28c0 7.94-5 11.94-14.68 11.94H589c-9.67 0-14.54-4-14.54-11.94V268.9c0-8 4.87-12 14.54-12h3.74c9.59-.01 14.66 4.06 14.66 12zm-14.55-7.17h-3.94c-5.2 0-8.73.66-8.73 7.34v17.41c0 7.07 4.2 7.81 8.8 7.81h3.8c5.21 0 8.88-.67 8.88-7.21v-18c0-6.68-3.6-7.34-8.81-7.34zM626.21 263.63a19.25 19.25 0 012.94-3.27 14.94 14.94 0 0110.14-3.47h1.13v4.84h-1.07c-4 0-6.4.86-8.47 2.6a28.9 28.9 0 00-3.07 3.2c-1.07 1.27-2.27 2.8-3.67 4.54v27.09h-5.74v-42.3h4.81l.66 10zM675.91 269.9c0-4.94-2.6-7.81-7.33-7.81-5.41 0-11.88 4.07-14.42 7.87v30.16h-5.67v-41.39h4.74l.47 6.34a23.57 23.57 0 0116.48-7.54c7.07 0 11.54 4.67 11.54 12.35v30.29H676z" style="isolation:isolate" fill="#fff" opacity=".5"/><path d="M410.18 296.38l-18.61-54.57h6.2l16.55 49.5 16.28-49.5h6.2l-18.48 54.57zM460.55 241.73h18.82v4.87h-17.88c-6.34 0-10.48.53-10.48 8v29c0 7.81 3.94 7.88 10.48 7.88h17.88v4.93h-18.82c-8.54 0-15.28-2.33-15.28-12v-30.68c0-9.72 6.73-12 15.28-12zM546.62 241.73c8.94 0 13.74 5.47 13.74 14.27 0 4.87-1.93 9.94-6.14 12.35 5.07 1.66 7 7.27 7 12.47 0 9.88-3 15.68-13.68 15.68h-23v-54.77zm7.94 14.34c0-5.94-2.61-9.54-8.68-9.54h-15.61v19.68H547c5 .02 7.56-5.79 7.56-10.19zm.86 24.68c0-4.87-2.26-9.67-7.67-9.67h-17.48v20.48h17.28c7 0 7.87-4.8 7.87-10.81zM604.13 266.16v18.28c0 7.94-5 11.94-14.68 11.94h-3.74c-9.67 0-14.54-4-14.54-11.94v-18.28c0-8 4.87-12 14.54-12h3.74c9.61-.08 14.68 4.06 14.68 12zm-14.55-7.2h-3.93c-5.21 0-8.74.66-8.74 7.33v17.35c0 7.07 4.2 7.81 8.8 7.81h3.81c5.2 0 8.87-.67 8.87-7.21v-17.95c0-6.67-3.54-7.33-8.81-7.33zM622.94 260.89a19.64 19.64 0 012.94-3.27 15 15 0 0110.12-3.47h1.13v4.87H636c-4 0-6.41.87-8.47 2.6a26.51 26.51 0 00-3.07 3.21c-1.07 1.26-2.27 2.8-3.67 4.53v27h-5.74v-42.3h4.8l.67 10zM672.65 266.16c0-4.94-2.61-7.81-7.41-7.81-5.4 0-11.88 4.07-14.41 7.88v30.15h-5.67v-41.36h4.74l.4 6.27a23.57 23.57 0 0116.47-7.56c7.08 0 11.55 4.67 11.55 12.34v30.29h-5.74v-30.2z" fill="#fff"/><path d="M341.6 287.38c-3.87 4.34-8.08 6.67-13.55 6.67-11.47 0-18.68-9.61-18.68-24.62s7.34-24.35 18.95-24.35a15.59 15.59 0 0111.81 5.54l2.53-3a19.25 19.25 0 00-14.41-6.68 21.73 21.73 0 00-17.41 8.28l-52.11 19.28v4l50.17 14.81a21.19 21.19 0 0018.88 10.88c7.08 0 12.15-2.94 16.35-7.87zm-78.86-16.88l44.9-16.15a36.12 36.12 0 00-3 15.22 37.93 37.93 0 002.14 13.07z" transform="translate(0 -.27)" fill="url(#a)"/></svg>