<?xml version="1.0" encoding="UTF-8"?>
<!DOCTYPE svg PUBLIC "-//W3C//DTD SVG 1.1//EN" "http://www.w3.org/Graphics/SVG/1.1/DTD/svg11.dtd">
<svg xmlns="http://www.w3.org/2000/svg" version="1.1" width="1917px" height="979px" style="shape-rendering:geometricPrecision; text-rendering:geometricPrecision; image-rendering:optimizeQuality; fill-rule:evenodd; clip-rule:evenodd" xmlns:xlink="http://www.w3.org/1999/xlink">
<g><path style="opacity:1" fill="#eef2e6" d="M -0.5,-0.5 C 53.1667,-0.5 106.833,-0.5 160.5,-0.5C 154.657,1.71181 151.991,6.04515 152.5,12.5C 152.362,18.8554 155.362,22.6887 161.5,24C 431,24.1667 700.5,24.3333 970,24.5C 1239.5,24.3333 1509,24.1667 1778.5,24C 1784.64,22.6887 1787.64,18.8554 1787.5,12.5C 1788.01,6.04515 1785.34,1.71181 1779.5,-0.5C 1825.17,-0.5 1870.83,-0.5 1916.5,-0.5C 1916.5,311.167 1916.5,622.833 1916.5,934.5C 1910.5,934.5 1904.5,934.5 1898.5,934.5C 1878.05,932.294 1857.38,931.128 1836.5,931C 1543.17,930.833 1249.83,930.667 956.5,930.5C 663.167,930.667 369.833,930.833 76.5,931C 55.6181,931.128 34.9514,932.294 14.5,934.5C 9.5,934.5 4.5,934.5 -0.5,934.5C -0.5,622.833 -0.5,311.167 -0.5,-0.5 Z"/></g>
<g><path style="opacity:1" fill="#e6eade" d="M 160.5,-0.5 C 700.167,-0.5 1239.83,-0.5 1779.5,-0.5C 1785.34,1.71181 1788.01,6.04515 1787.5,12.5C 1787.64,18.8554 1784.64,22.6887 1778.5,24C 1509,24.1667 1239.5,24.3333 970,24.5C 700.5,24.3333 431,24.1667 161.5,24C 155.362,22.6887 152.362,18.8554 152.5,12.5C 151.991,6.04515 154.657,1.71181 160.5,-0.5 Z"/></g>
<g><path style="opacity:1" fill="#7d8175" d="M 1860.5,4.5 C 1865.5,4.5 1870.5,4.5 1875.5,4.5C 1875.5,9.5 1875.5,14.5 1875.5,19.5C 1870.5,19.5 1865.5,19.5 1860.5,19.5C 1860.5,14.5 1860.5,9.5 1860.5,4.5 Z"/></g>
<g><path style="opacity:1" fill="#ecf0e4" d="M 1862.5,6.5 C 1866.17,6.5 1869.83,6.5 1873.5,6.5C 1873.5,10.1667 1873.5,13.8333 1873.5,17.5C 1869.83,17.5 1866.17,17.5 1862.5,17.5C 1862.5,13.8333 1862.5,10.1667 1862.5,6.5 Z"/></g>
<g><path style="opacity:1" fill="#d1d1d5" d="M 250.5,6.5 C 251.735,6.72142 252.735,7.38809 253.5,8.5C 254.842,6.99512 256.508,6.32846 258.5,6.5C 258.969,10.8941 257.969,14.8941 255.5,18.5C 254.167,15.8333 252.833,15.8333 251.5,18.5C 250.808,17.9747 250.308,17.3081 250,16.5C 249.612,13.1508 249.779,9.81747 250.5,6.5 Z"/></g>
<g><path style="opacity:1" fill="#8b8f83" d="M 130.5,4.5 C 133.944,6.10826 136.61,8.60826 138.5,12C 136.702,14.9659 134.369,17.4659 131.5,19.5C 131.167,19.1667 130.833,18.8333 130.5,18.5C 133.037,16.7979 135.037,14.6312 136.5,12C 133.907,9.91423 131.907,7.41423 130.5,4.5 Z"/></g>
<g><path style="opacity:1" fill="#bcb9bf" d="M 162.5,6.5 C 164.089,9.09158 165.755,9.09158 167.5,6.5C 170.597,7.77088 170.931,9.27088 168.5,11C 170.418,12.7702 170.918,14.9369 170,17.5C 169.333,16.8333 168.667,16.1667 168,15.5C 164.793,18.1502 164.293,17.9835 166.5,15C 164.256,12.6514 163.089,13.1514 163,16.5C 162.691,15.2341 162.191,14.0674 161.5,13C 162.423,10.9592 162.756,8.7925 162.5,6.5 Z"/></g>
<g><path style="opacity:1" fill="#c9c9cb" d="M 280.5,6.5 C 282.492,6.32846 284.158,6.99512 285.5,8.5C 286.167,7.83333 286.833,7.16667 287.5,6.5C 288.244,7.99051 288.91,9.49051 289.5,11C 286.27,12.724 285.936,14.724 288.5,17C 286.559,17.7429 284.726,17.5762 283,16.5C 282.682,14.9391 281.849,13.7724 280.5,13C 281.167,12.3333 281.833,11.6667 282.5,11C 280.893,9.95101 280.227,8.45101 280.5,6.5 Z"/></g>
<g><path style="opacity:1" fill="#9ea296" d="M 39.5,4.5 C 43.3129,5.63002 46.3129,7.96335 48.5,11.5C 48.1543,12.6956 47.6543,12.6956 47,11.5C 46.5026,14.146 46.3359,16.8127 46.5,19.5C 42.8333,19.5 39.1667,19.5 35.5,19.5C 35.6641,16.8127 35.4974,14.146 35,11.5C 34.3457,12.6956 33.8457,12.6956 33.5,11.5C 35.5227,9.14715 37.5227,6.81382 39.5,4.5 Z"/></g>
<g><path style="opacity:1" fill="#e9ede1" d="M 39.5,6.5 C 41.3904,6.2965 42.8904,6.96317 44,8.5C 44.498,11.4816 44.6646,14.4816 44.5,17.5C 42.1667,17.5 39.8333,17.5 37.5,17.5C 37.0097,13.5128 37.6764,9.84616 39.5,6.5 Z"/></g>
<g><path style="opacity:1" fill="#a6a5ad" d="M 188.5,7.5 C 189.766,8.0899 191.099,8.5899 192.5,9C 191.552,9.48278 190.552,9.64945 189.5,9.5C 189.662,11.5273 189.495,13.5273 189,15.5C 188.25,14.8742 187.416,14.3742 186.5,14C 189.167,13 189.167,12 186.5,11C 187.167,10.6667 187.833,10.3333 188.5,10C 187.167,9.66667 185.833,9.33333 184.5,9C 186.058,8.78997 187.391,8.28997 188.5,7.5 Z"/></g>
<g><path style="opacity:1" fill="#a6a5a9" d="M 212.5,6.5 C 213.404,7.20895 213.737,8.20895 213.5,9.5C 209.551,9.69322 209.551,10.1932 213.5,11C 209.815,11.9145 210.148,12.5811 214.5,13C 209.167,13.6667 209.167,14.3333 214.5,15C 212.598,15.1992 211.098,16.0325 210,17.5C 208.902,16.0325 207.402,15.1992 205.5,15C 209.852,14.5811 210.185,13.9145 206.5,13C 210.5,12.3333 210.5,11.6667 206.5,11C 210.5,10.3333 210.5,9.66667 206.5,9C 209.051,8.99775 211.051,8.16441 212.5,6.5 Z"/></g>
<g><path style="opacity:1" fill="#b8b8be" d="M 268.5,8.5 C 271.167,8.5 273.833,8.5 276.5,8.5C 276.5,10.8333 276.5,13.1667 276.5,15.5C 277.552,15.3505 278.552,15.5172 279.5,16C 277.866,16.4935 276.199,16.6602 274.5,16.5C 274.714,12.7429 273.714,12.0762 271.5,14.5C 269.898,13.45 269.065,14.1167 269,16.5C 268.503,13.854 268.336,11.1873 268.5,8.5 Z"/></g>
<g><path style="opacity:1" fill="#bfb6b9" d="M 228.5,9.5 C 230.628,8.37086 232.961,8.20419 235.5,9C 234.376,9.24917 233.376,9.74917 232.5,10.5C 233.274,11.7112 234.107,11.7112 235,10.5C 233.886,12.6691 234.386,14.5024 236.5,16C 235.451,16.4922 234.451,16.3256 233.5,15.5C 232.552,18.715 231.219,19.0484 229.5,16.5C 228.548,14.9547 228.215,13.288 228.5,11.5C 232.5,10.8333 232.5,10.1667 228.5,9.5 Z"/></g>
<g><path style="opacity:1" fill="#909488" d="M 1806.5,5.5 C 1809.6,6.7595 1811.93,8.92617 1813.5,12C 1812.02,14.6432 1810.02,16.8099 1807.5,18.5C 1806.72,16.6707 1807.38,15.1707 1809.5,14C 1794.88,13.1546 1794.88,11.9879 1809.5,10.5C 1808.05,9.06028 1807.05,7.39362 1806.5,5.5 Z"/></g>
<g><path style="opacity:1" fill="#888c80" d="M 103.5,5.5 C 104.239,5.36899 104.906,5.53566 105.5,6C 103.47,7.8962 101.803,10.0629 100.5,12.5C 102.316,14.8169 104.316,16.9835 106.5,19C 103.018,17.868 100.351,15.5347 98.5,12C 99.9852,9.68302 101.652,7.51636 103.5,5.5 Z"/></g>
<g><path style="opacity:1" fill="#a0a498" d="M 1830.5,11.5 C 1834.88,11.1744 1839.22,11.5078 1843.5,12.5C 1841.33,12.8333 1839.17,13.1667 1837,13.5C 1834.39,13.4668 1832.22,12.8001 1830.5,11.5 Z"/></g>
<g><path style="opacity:1" fill="#b9b7bb" d="M 176.5,6.5 C 182.031,7.36826 182.365,8.20159 177.5,9C 178.833,9.33333 180.167,9.66667 181.5,10C 180.376,10.2492 179.376,10.7492 178.5,11.5C 179.751,12.6311 180.751,13.9644 181.5,15.5C 181.57,17.6656 180.904,17.9989 179.5,16.5C 178.833,17.1667 178.167,17.8333 177.5,18.5C 176.566,13.8274 175.066,13.4941 173,17.5C 172.217,15.5665 172.717,14.0665 174.5,13C 171.851,10.5634 172.517,9.23002 176.5,9C 175.167,8.66667 173.833,8.33333 172.5,8C 174.058,7.78997 175.391,7.28997 176.5,6.5 Z"/></g>
<g><path style="opacity:1" fill="#a9a8a9" d="M 260.5,8.5 C 260.982,11.0459 261.982,13.3792 263.5,15.5C 264.086,15.2907 264.586,14.9574 265,14.5C 265.333,12.5 265.667,10.5 266,8.5C 266.769,11.0991 266.602,13.5991 265.5,16C 263.888,16.7203 262.388,16.5536 261,15.5C 260.503,13.1902 260.337,10.8568 260.5,8.5 Z"/></g>
<g><path style="opacity:1" fill="#c2c0c5" d="M 306.5,6.5 C 308.048,6.82124 308.715,7.82124 308.5,9.5C 309.5,9.5 310.5,9.5 311.5,9.5C 311.663,11.8568 311.497,14.1902 311,16.5C 310.505,14.5273 310.338,12.5273 310.5,10.5C 309.167,10.5 307.833,10.5 306.5,10.5C 307.354,15.6033 305.354,18.1033 300.5,18C 299.076,15.7822 297.076,14.2822 294.5,13.5C 295.025,12.8076 295.692,12.3076 296.5,12C 295.167,11 295.167,10 296.5,9C 292.774,7.95685 293.107,7.45685 297.5,7.5C 297.5,9.16667 297.5,10.8333 297.5,12.5C 300.004,12.8283 301.838,14.1616 303,16.5C 305.845,13.6185 305.679,11.4518 302.5,10C 303.793,9.50999 305.127,9.34332 306.5,9.5C 306.5,8.5 306.5,7.5 306.5,6.5 Z"/></g>
<g><path style="opacity:1" fill="#9a9e92" d="M 1891.5,4.5 C 1894.39,5.88229 1896.89,7.88229 1899,10.5C 1908.04,2.42175 1908.54,2.92175 1900.5,12C 1902.68,14.0165 1904.68,16.1831 1906.5,18.5C 1906,19.521 1905.33,19.6877 1904.5,19C 1902.67,17.1667 1900.83,15.3333 1899,13.5C 1889.92,21.5443 1889.42,21.0443 1897.5,12C 1894.88,9.8943 1892.88,7.3943 1891.5,4.5 Z"/></g>
<g><path style="opacity:1" fill="#73776b" d="M 64.5,4.5 C 65.2216,4.91753 65.7216,5.5842 66,6.5C 77.3924,2.22738 81.3924,5.89404 78,17.5C 74.7441,19.4285 71.2441,19.9285 67.5,19C 65.3843,17.8293 64.7176,16.3293 65.5,14.5C 68.4011,18.5808 72.0678,19.4141 76.5,17C 78.9078,13.9574 79.0745,10.7907 77,7.5C 72.2674,4.37939 68.434,5.21272 65.5,10C 73.2198,11.3942 72.8865,12.2276 64.5,12.5C 64.5,9.83333 64.5,7.16667 64.5,4.5 Z"/></g>
<g><path style="opacity:1" fill="#c7c6c8" d="M 220.5,7.5 C 221.946,6.38705 223.613,6.22039 225.5,7C 221.551,7.80678 221.551,8.30678 225.5,8.5C 226.263,11.1411 226.43,13.8078 226,16.5C 223.049,18.0761 219.883,18.7428 216.5,18.5C 216.5,16.1667 216.5,13.8333 216.5,11.5C 218.288,11.7852 219.955,11.4519 221.5,10.5C 219.883,10.3306 218.216,9.99723 216.5,9.5C 218.653,8.99238 219.987,8.32571 220.5,7.5 Z"/></g>
<g><path style="opacity:1" fill="#e6eade" d="M 11.5,29.5 C 631.167,29.3333 1250.83,29.5 1870.5,30C 1876.54,31.9117 1879.21,36.0783 1878.5,42.5C 1878.64,48.8554 1875.64,52.6887 1869.5,54C 1250.5,54.6667 631.5,54.6667 12.5,54C 6.12323,52.6138 3.12323,48.6138 3.5,42C 3.2183,35.8091 5.88497,31.6424 11.5,29.5 Z"/></g>
<g><path style="opacity:1" fill="#484c40" d="M 1898.5,34.5 C 1899.47,36.9479 1899.81,39.6146 1899.5,42.5C 1910.17,42.8333 1910.17,43.1667 1899.5,43.5C 1899.17,54.1667 1898.83,54.1667 1898.5,43.5C 1887.83,43.1667 1887.83,42.8333 1898.5,42.5C 1898.5,39.8333 1898.5,37.1667 1898.5,34.5 Z"/></g>
<g><path style="opacity:1" fill="#888687" d="M 927.5,39.5 C 932.328,39.3852 933.661,41.5519 931.5,46C 926.57,46.427 925.237,44.2604 927.5,39.5 Z"/></g>
<g><path style="opacity:1" fill="#e0e2e1" d="M 928.5,40.5 C 931.956,41.5362 932.29,43.2029 929.5,45.5C 927.296,44.218 926.962,42.5514 928.5,40.5 Z"/></g>
<g><path style="opacity:1" fill="#727791" d="M 934.5,39.5 C 938.838,39.6219 939.172,39.9553 935.5,40.5C 935.662,42.5273 935.495,44.5273 935,46.5C 934.503,44.1902 934.337,41.8568 934.5,39.5 Z"/></g>
<g><path style="opacity:1" fill="#84777c" d="M 918.5,37.5 C 919.434,38.5676 919.768,39.901 919.5,41.5C 920.833,41.5 922.167,41.5 923.5,41.5C 924.833,41.8333 924.833,42.1667 923.5,42.5C 922.167,42.5 920.833,42.5 919.5,42.5C 919.657,43.8734 919.49,45.2068 919,46.5C 918.502,43.5184 918.335,40.5184 918.5,37.5 Z"/></g>
<g><path style="opacity:1" fill="#817d7e" d="M 945.5,39.5 C 946.978,39.238 948.311,39.5713 949.5,40.5C 948.174,40.2052 946.841,40.7052 945.5,42C 950.833,42.6667 950.833,43.3333 945.5,44C 946.623,45.0437 947.956,45.7104 949.5,46C 944.57,46.427 943.237,44.2604 945.5,39.5 Z"/></g>
<g><path style="opacity:1" fill="#93978b" d="M 1859.5,35.5 C 1861.46,36.9599 1863.3,38.6266 1865,40.5C 1871.32,33.8086 1871.82,34.142 1866.5,41.5C 1871.82,48.858 1871.32,49.1914 1865,42.5C 1858.68,49.1914 1858.18,48.858 1863.5,41.5C 1861.72,39.736 1860.39,37.736 1859.5,35.5 Z"/></g>
<g><path style="opacity:1" fill="#b8e9ee" d="M 836.5,456.5 C 845.153,457.174 848.486,461.841 846.5,470.5C 842.63,471.799 838.63,472.466 834.5,472.5C 833.612,469.286 832.279,466.286 830.5,463.5C 831.418,460.248 833.418,457.914 836.5,456.5 Z"/></g>
<g><path style="opacity:1" fill="#4e5245" d="M 896.5,459.5 C 902.842,459.334 909.175,459.5 915.5,460C 924.565,463.645 926.731,469.811 922,478.5C 919.705,481.065 916.872,482.731 913.5,483.5C 916.914,489.997 920.581,496.33 924.5,502.5C 923.167,503.833 921.833,503.833 920.5,502.5C 916.707,496.416 913.041,490.249 909.5,484C 906.518,483.502 903.518,483.335 900.5,483.5C 900.5,490.167 900.5,496.833 900.5,503.5C 899.167,503.5 897.833,503.5 896.5,503.5C 896.5,488.833 896.5,474.167 896.5,459.5 Z"/></g>
<g><path style="opacity:1" fill="#515549" d="M 1050.5,458.5 C 1054.35,458.701 1055.35,460.534 1053.5,464C 1049.54,464.118 1048.54,462.284 1050.5,458.5 Z"/></g>
<g><path style="opacity:1" fill="#edf1e5" d="M 900.5,462.5 C 905.93,462.161 911.264,462.661 916.5,464C 919.217,465.259 920.55,467.426 920.5,470.5C 920.408,473.953 919.075,476.786 916.5,479C 911.246,480.271 905.913,480.771 900.5,480.5C 900.5,474.5 900.5,468.5 900.5,462.5 Z"/></g>
<g><path style="opacity:1" fill="#e9f6f5" d="M 890.5,486.5 C 889.833,486.5 889.167,486.5 888.5,486.5C 881.79,483.539 875.623,484.539 870,489.5C 868.277,494.416 868.11,499.416 869.5,504.5C 870.265,505.612 871.265,506.279 872.5,506.5C 873.183,508.176 874.517,508.843 876.5,508.5C 871.029,511.385 865.029,513.385 858.5,514.5C 854.5,513.5 850.5,512.5 846.5,511.5C 841.727,509.114 837.06,506.78 832.5,504.5C 828.981,498.267 826.315,491.6 824.5,484.5C 824.716,482.616 825.383,480.949 826.5,479.5C 825.456,478.377 824.79,477.044 824.5,475.5C 825.967,471.968 826.634,468.302 826.5,464.5C 827.959,464.567 829.292,464.234 830.5,463.5C 832.279,466.286 833.612,469.286 834.5,472.5C 838.63,472.466 842.63,471.799 846.5,470.5C 848.486,461.841 845.153,457.174 836.5,456.5C 836.5,455.167 836.5,453.833 836.5,452.5C 841.725,450.759 847.058,449.426 852.5,448.5C 854.048,447.206 856.048,446.539 858.5,446.5C 863.234,447.183 867.9,448.183 872.5,449.5C 873.988,451.577 875.988,452.577 878.5,452.5C 878.5,453.833 878.5,455.167 878.5,456.5C 884.536,458.207 888.202,462.207 889.5,468.5C 890.496,474.463 890.829,480.463 890.5,486.5 Z"/></g>
<g><path style="opacity:1" fill="#94dbdc" d="M 852.5,448.5 C 863.633,447.006 867.3,451.673 863.5,462.5C 862.066,463.588 861.066,464.922 860.5,466.5C 860.167,467.5 859.5,468.167 858.5,468.5C 856.365,466.631 853.698,465.964 850.5,466.5C 849.712,463.566 849.046,460.566 848.5,457.5C 848.833,455.833 849.167,454.167 849.5,452.5C 850.934,451.412 851.934,450.078 852.5,448.5 Z"/></g>
<g><path style="opacity:1" fill="#4c9bbc" d="M 860.5,466.5 C 867.094,466.077 872.094,468.744 875.5,474.5C 877.083,476.99 878.083,479.657 878.5,482.5C 874.668,482.777 870.835,483.11 867,483.5C 857.448,483.621 853.948,479.121 856.5,470C 856.836,468.97 857.503,468.47 858.5,468.5C 859.5,468.167 860.167,467.5 860.5,466.5 Z"/></g>
<g><path style="opacity:1" fill="#4e5246" d="M 940.5,470.5 C 952.504,470.461 957.504,476.461 955.5,488.5C 948.167,488.5 940.833,488.5 933.5,488.5C 933.38,494.097 935.713,498.264 940.5,501C 944.664,501.813 948.664,501.313 952.5,499.5C 953.308,499.808 953.975,500.308 954.5,501C 944.805,506.978 936.971,505.145 931,495.5C 927.217,484.331 930.383,475.998 940.5,470.5 Z"/></g>
<g><path style="opacity:1" fill="#52564a" d="M 970.5,470.5 C 977.617,469.14 982.451,471.807 985,478.5C 985.5,486.827 985.666,495.16 985.5,503.5C 984.167,503.5 982.833,503.5 981.5,503.5C 981.719,502.325 981.386,501.325 980.5,500.5C 974.825,505.277 968.992,505.61 963,501.5C 960.167,495.599 961.333,490.765 966.5,487C 971.246,484.73 976.246,483.563 981.5,483.5C 981.687,475.853 978.02,472.686 970.5,474C 968.464,474.454 966.63,475.287 965,476.5C 963.941,476.37 963.108,475.87 962.5,475C 965.099,473.205 967.766,471.705 970.5,470.5 Z"/></g>
<g><path style="opacity:1" fill="#4b4f43" d="M 1006.5,470.5 C 1012.1,469.611 1016.26,471.611 1019,476.5C 1024.48,469.579 1030.48,468.912 1037,474.5C 1038.45,484.061 1038.95,493.727 1038.5,503.5C 1037.5,503.5 1036.5,503.5 1035.5,503.5C 1035.67,495.16 1035.5,486.827 1035,478.5C 1033.29,473.962 1030.12,472.462 1025.5,474C 1023.39,475.141 1021.56,476.641 1020,478.5C 1019.5,486.827 1019.33,495.16 1019.5,503.5C 1018.17,503.5 1016.83,503.5 1015.5,503.5C 1015.67,494.827 1015.5,486.16 1015,477.5C 1012.37,473.371 1008.87,472.538 1004.5,475C 1003,476.5 1001.5,478 1000,479.5C 999.5,487.493 999.334,495.493 999.5,503.5C 998.5,503.5 997.5,503.5 996.5,503.5C 996.5,492.833 996.5,482.167 996.5,471.5C 997.5,471.5 998.5,471.5 999.5,471.5C 999.343,472.873 999.51,474.207 1000,475.5C 1002.33,473.934 1004.49,472.268 1006.5,470.5 Z"/></g>
<g><path style="opacity:1" fill="#414639" d="M 1050.5,471.5 C 1051.5,471.5 1052.5,471.5 1053.5,471.5C 1053.5,482.167 1053.5,492.833 1053.5,503.5C 1052.5,503.5 1051.5,503.5 1050.5,503.5C 1050.5,492.833 1050.5,482.167 1050.5,471.5 Z"/></g>
<g><path style="opacity:1" fill="#4e5246" d="M 1062.5,471.5 C 1064.39,471.297 1065.89,471.963 1067,473.5C 1069.08,477.336 1071.42,481.003 1074,484.5C 1076.75,480.668 1079.25,476.668 1081.5,472.5C 1082.72,471.386 1084.06,471.219 1085.5,472C 1082.48,477.01 1079.48,482.01 1076.5,487C 1079.58,492.485 1082.91,497.818 1086.5,503C 1084.89,503.72 1083.39,503.554 1082,502.5C 1079.17,498.167 1076.33,493.833 1073.5,489.5C 1070.75,493.332 1068.25,497.332 1066,501.5C 1064.76,503.421 1063.26,503.754 1061.5,502.5C 1065.23,497.433 1068.56,492.099 1071.5,486.5C 1068.23,481.61 1065.23,476.61 1062.5,471.5 Z"/></g>
<g><path style="opacity:1" fill="#ebefe3" d="M 940.5,473.5 C 948.833,473.167 952.833,477.167 952.5,485.5C 946.167,485.5 939.833,485.5 933.5,485.5C 933.772,480.288 936.106,476.288 940.5,473.5 Z"/></g>
<g><path style="opacity:1" fill="#82c4d8" d="M 842.5,474.5 C 845.833,474.5 849.167,474.5 852.5,474.5C 853.142,477.135 853.809,479.802 854.5,482.5C 852.514,488.651 848.347,492.651 842,494.5C 840.674,494.245 839.674,493.578 839,492.5C 838.171,487.136 838.337,481.802 839.5,476.5C 840.739,476.058 841.739,475.391 842.5,474.5 Z"/></g>
<g><path style="opacity:1" fill="#a7a2d0" d="M 888.5,486.5 C 888.545,494.638 885.212,500.971 878.5,505.5C 876.604,506.466 874.604,506.799 872.5,506.5C 871.265,506.279 870.265,505.612 869.5,504.5C 868.11,499.416 868.277,494.416 870,489.5C 875.623,484.539 881.79,483.539 888.5,486.5 Z"/></g>
<g><path style="opacity:1" fill="#eaeee2" d="M 974.5,486.5 C 976.833,486.5 979.167,486.5 981.5,486.5C 982.92,498.249 977.92,502.749 966.5,500C 963.731,496.393 964.064,493.06 967.5,490C 969.925,488.787 972.259,487.621 974.5,486.5 Z"/></g>
<g><path style="opacity:1" fill="#dedced" d="M 888.5,486.5 C 889.167,486.5 889.833,486.5 890.5,486.5C 890.138,494.891 886.805,501.891 880.5,507.5C 879.311,508.429 877.978,508.762 876.5,508.5C 874.517,508.843 873.183,508.176 872.5,506.5C 874.604,506.799 876.604,506.466 878.5,505.5C 885.212,500.971 888.545,494.638 888.5,486.5 Z"/></g>
<g><path style="opacity:1" fill="#f6faee" d="M 489.5,519.5 C 800.834,519.333 1112.17,519.5 1423.5,520C 1433.84,522.684 1438.17,529.351 1436.5,540C 1438.01,551.136 1433.34,557.802 1422.5,560C 1111.83,560.667 801.167,560.667 490.5,560C 479.656,557.802 474.989,551.136 476.5,540C 475.074,529.3 479.407,522.466 489.5,519.5 Z"/></g>
<g><path style="opacity:1" fill="#9c9d9c" d="M 595.5,534.5 C 597.155,535.93 599.155,536.764 601.5,537C 594.613,537.55 594.113,539.05 600,541.5C 601.465,540.67 602.965,540.504 604.5,541C 602.975,542.009 601.308,542.509 599.5,542.5C 599.657,543.873 599.49,545.207 599,546.5C 596.833,545.109 595.833,543.442 596,541.5C 594.395,542.101 593.062,543.101 592,544.5C 592.937,542.326 593.771,539.993 594.5,537.5C 593.448,537.649 592.448,537.483 591.5,537C 593.437,536.878 594.77,536.045 595.5,534.5 Z"/></g>
<g><path style="opacity:1" fill="#96969c" d="M 582.5,540.5 C 582.423,539.25 581.756,538.417 580.5,538C 583.001,536.582 582.668,535.582 579.5,535C 582.5,534.333 585.5,534.333 588.5,535C 586.744,535.202 585.078,535.702 583.5,536.5C 584.689,537.429 586.022,537.762 587.5,537.5C 587.286,539.144 587.62,540.644 588.5,542C 585.5,542.667 582.5,542.667 579.5,542C 580.527,541.487 581.527,540.987 582.5,540.5 Z"/></g>
<g><path style="opacity:1" fill="#98999a" d="M 512.5,533.5 C 514.829,535.049 517.496,535.883 520.5,536C 511.189,537.155 511.189,537.988 520.5,538.5C 520.649,539.552 520.483,540.552 520,541.5C 516.736,538.82 513.569,538.987 510.5,542C 511.5,542.333 512.5,542.667 513.5,543C 513.167,543.333 512.833,543.667 512.5,544C 515.611,542.89 518.277,543.556 520.5,546C 518.249,545.793 515.915,545.627 513.5,545.5C 513.167,552.167 512.833,552.167 512.5,545.5C 510.143,545.663 507.81,545.497 505.5,545C 507.167,544.667 508.833,544.333 510.5,544C 507.833,542.667 507.833,541.333 510.5,540C 508.567,539.217 507.067,539.717 506,541.5C 505.517,540.552 505.351,539.552 505.5,538.5C 514.811,537.988 514.811,537.155 505.5,536C 508.361,536.03 510.695,535.197 512.5,533.5 Z"/></g>
<g><path style="opacity:1" fill="#a8a9af" d="M 551.5,542.5 C 548.86,541.555 546.194,541.388 543.5,542C 545.167,540.333 546.833,538.667 548.5,537C 546.5,536.667 544.5,536.333 542.5,536C 545.227,535.182 547.894,535.348 550.5,536.5C 549.687,537.814 548.687,538.981 547.5,540C 549.32,540.2 550.653,541.034 551.5,542.5 Z"/></g>
<g><path style="opacity:1" fill="#e4eeeb" d="M 582.5,540.5 C 583.467,539.194 584.801,538.527 586.5,538.5C 586.5,539.5 586.5,540.5 586.5,541.5C 584.901,541.768 583.568,541.434 582.5,540.5 Z"/></g>
<g><path style="opacity:1" fill="#3d4135" d="M 1409.5,528.5 C 1418.19,528.7 1421.36,533.034 1419,541.5C 1423.04,543.774 1425.54,546.774 1426.5,550.5C 1423.35,547.85 1420.35,545.016 1417.5,542C 1408.25,544.421 1404.42,540.921 1406,531.5C 1407.15,530.364 1408.31,529.364 1409.5,528.5 Z"/></g>
<g><path style="opacity:1" fill="#e9ede1" d="M 1408.5,530.5 C 1417.86,529.936 1419.86,533.436 1414.5,541C 1406.99,540.814 1404.99,537.314 1408.5,530.5 Z"/></g>
<g><path style="opacity:1" fill="#adabae" d="M 523.5,538.5 C 530.921,536.947 533.921,536.947 532.5,538.5C 533.342,543.06 532.009,546.727 528.5,549.5C 528.167,549.333 527.833,549.167 527.5,549C 528.5,548 529.5,547 530.5,546C 525.268,543.946 525.268,541.612 530.5,539C 528.19,538.503 525.857,538.337 523.5,538.5 Z"/></g>
<g><path style="opacity:1" fill="#a4999d" d="M 630.5,534.5 C 631.404,535.209 631.737,536.209 631.5,537.5C 633.833,537.5 636.167,537.5 638.5,537.5C 638.766,541.571 638.433,545.571 637.5,549.5C 636.277,550.614 634.944,550.781 633.5,550C 635.061,549.682 636.228,548.849 637,547.5C 637.498,544.518 637.665,541.518 637.5,538.5C 635.5,538.5 633.5,538.5 631.5,538.5C 631.167,543.833 630.833,543.833 630.5,538.5C 622.5,538.167 622.5,537.833 630.5,537.5C 630.5,536.5 630.5,535.5 630.5,534.5 Z"/></g>
<g><path style="opacity:1" fill="#b5b6b8" d="M 502.5,544.5 C 500.333,545.198 498.5,546.531 497,548.5C 496.383,547.551 496.549,546.718 497.5,546C 495.924,545.56 494.59,544.727 493.5,543.5C 492.833,545.833 492.167,548.167 491.5,550.5C 490.692,548.577 490.192,546.577 490,544.5C 489.444,546.595 488.944,546.762 488.5,545C 489.068,543.128 489.735,541.295 490.5,539.5C 489.975,538.808 489.308,538.308 488.5,538C 492.881,538.389 496.381,536.889 499,533.5C 500.5,535 502,536.5 503.5,538C 498.408,539.67 498.408,540.503 503.5,540.5C 503.768,542.099 503.434,543.432 502.5,544.5 Z"/></g>
<g><path style="opacity:1" fill="#efecdc" d="M 502.5,544.5 C 501.5,544.5 500.5,544.5 499.5,544.5C 499.5,543.5 499.5,542.5 499.5,541.5C 500.5,541.5 501.5,541.5 502.5,541.5C 502.5,542.5 502.5,543.5 502.5,544.5 Z"/></g>
<g><path style="opacity:1" fill="#f2eddd" d="M 495.5,541.5 C 496.5,541.5 497.5,541.5 498.5,541.5C 498.5,542.5 498.5,543.5 498.5,544.5C 497.5,544.5 496.5,544.5 495.5,544.5C 495.5,543.5 495.5,542.5 495.5,541.5 Z"/></g>
<g><path style="opacity:1" fill="#959392" d="M 562.5,533.5 C 563.659,534.456 564.826,535.456 566,536.5C 567.412,535.077 568.579,535.244 569.5,537C 567.866,537.494 566.199,537.66 564.5,537.5C 564.5,538.5 564.5,539.5 564.5,540.5C 569.682,540.557 569.682,541.224 564.5,542.5C 571.073,543.638 571.073,544.472 564.5,545C 573.81,545.828 573.81,546.328 564.5,546.5C 564.167,551.833 563.833,551.833 563.5,546.5C 554.19,546.328 554.19,545.828 563.5,545C 561.866,544.506 560.199,544.34 558.5,544.5C 558.336,541.813 558.503,539.146 559,536.5C 560.32,536.201 561.82,536.034 563.5,536C 562.748,535.329 562.414,534.496 562.5,533.5 Z"/></g>
<g><path style="opacity:1" fill="#f4f7f2" d="M 559.5,541.5 C 560.978,541.238 562.311,541.571 563.5,542.5C 562.833,542.833 562.167,543.167 561.5,543.5C 560.287,543.253 559.62,542.586 559.5,541.5 Z"/></g>
<g><path style="opacity:1" fill="#f3f7f2" d="M 559.5,537.5 C 560.833,537.5 562.167,537.5 563.5,537.5C 563.5,538.5 563.5,539.5 563.5,540.5C 562.167,540.5 560.833,540.5 559.5,540.5C 559.5,539.5 559.5,538.5 559.5,537.5 Z"/></g>
<g><path style="opacity:1" fill="#9a979b" d="M 580.5,543.5 C 582.833,543.5 585.167,543.5 587.5,543.5C 587.5,545.5 587.5,547.5 587.5,549.5C 585.208,549.244 583.041,549.577 581,550.5C 580.503,548.19 580.337,545.857 580.5,543.5 Z"/></g>
<g><path style="opacity:1" fill="#f4f6ef" d="M 581.5,544.5 C 583.167,544.5 584.833,544.5 586.5,544.5C 586.5,545.833 586.5,547.167 586.5,548.5C 584.833,548.5 583.167,548.5 581.5,548.5C 581.5,547.167 581.5,545.833 581.5,544.5 Z"/></g>
<g><path style="opacity:1" fill="#ada7b0" d="M 616.5,542.5 C 618.208,544.718 620.208,546.884 622.5,549C 619.07,548.397 617.07,546.231 616.5,542.5 Z"/></g>
<g><path style="opacity:1" fill="#b9b4b6" d="M 551.5,542.5 C 552.988,548.826 550.488,550.826 544,548.5C 543.085,546.08 543.918,544.747 546.5,544.5C 549.879,548.816 551.546,548.149 551.5,542.5 Z"/></g>
<g><path style="opacity:1" fill="#b8bec2" d="M 616.5,542.5 C 615.778,542.082 615.278,541.416 615,540.5C 614.505,542.473 614.338,544.473 614.5,546.5C 612.084,546.961 610.25,548.294 609,550.5C 608.5,550.167 608,549.833 607.5,549.5C 611.946,545.942 614.279,541.275 614.5,535.5C 609.5,534.997 609.833,534.664 615.5,534.5C 615.833,537.167 616.167,539.833 616.5,542.5 Z"/></g>
<g><path style="opacity:1" fill="#bdc1b5" d="M 1788.5,907.5 C 1790.05,907.821 1790.71,908.821 1790.5,910.5C 1791.5,910.5 1792.5,910.5 1793.5,910.5C 1794.57,914.938 1792.91,916.938 1788.5,916.5C 1788.5,913.5 1788.5,910.5 1788.5,907.5 Z"/></g>
<g><path style="opacity:1" fill="#92968a" d="M 1662.5,910.5 C 1663.83,910.5 1665.17,910.5 1666.5,910.5C 1666.64,917.626 1665.97,917.959 1664.5,911.5C 1663.03,917.959 1662.36,917.626 1662.5,910.5 Z"/></g>
<g><path style="opacity:1" fill="#9a9e92" d="M 1732.5,910.5 C 1733.55,910.351 1734.55,910.517 1735.5,911C 1734,912.491 1733.16,914.324 1733,916.5C 1732.5,914.527 1732.34,912.527 1732.5,910.5 Z"/></g>
<g><path style="opacity:1" fill="#b8bcb0" d="M 1645.5,910.5 C 1649.52,910.244 1650.85,911.91 1649.5,915.5C 1646.28,915.945 1642.94,915.945 1639.5,915.5C 1643.06,916.316 1645.06,914.649 1645.5,910.5 Z"/></g>
<g><path style="opacity:1" fill="#a9ada1" d="M 1651.5,910.5 C 1653.54,910.854 1655.37,910.854 1657,910.5C 1658.04,911.623 1658.71,912.956 1659,914.5C 1659.33,913.5 1659.67,912.5 1660,911.5C 1660.65,910.304 1661.15,910.304 1661.5,911.5C 1660.57,913.795 1659.73,916.129 1659,918.5C 1658.33,916.5 1657.67,914.5 1657,912.5C 1656.55,915.106 1655.05,916.439 1652.5,916.5C 1651.22,917.317 1650.89,915.317 1651.5,910.5 Z"/></g>
<g><path style="opacity:1" fill="#9ca094" d="M 1673.5,916.5 C 1673.34,913.813 1673.5,911.146 1674,908.5C 1674.99,909.939 1676.32,910.939 1678,911.5C 1678.67,913.167 1678.67,914.833 1678,916.5C 1676.59,910.069 1675.09,910.069 1673.5,916.5 Z"/></g>
<g><path style="opacity:1" fill="#8b8f83" d="M 1736.5,910.5 C 1737.83,910.5 1739.17,910.5 1740.5,910.5C 1740.64,917.626 1739.97,917.959 1738.5,911.5C 1737.03,917.959 1736.36,917.626 1736.5,910.5 Z"/></g>
<g><path style="opacity:1" fill="#aaaea2" d="M 1760.5,910.5 C 1762.12,910.36 1763.29,911.027 1764,912.5C 1765.07,910.717 1766.57,910.217 1768.5,911C 1767.08,912.53 1766.08,914.363 1765.5,916.5C 1764.61,915.675 1764.28,914.675 1764.5,913.5C 1762.55,913.227 1761.05,913.893 1760,915.5C 1759.36,913.735 1759.53,912.068 1760.5,910.5 Z"/></g>
<g><path style="opacity:1" fill="#a8aca0" d="M 1673.5,916.5 C 1672.95,919.084 1671.29,920.084 1668.5,919.5C 1668.5,916.5 1668.5,913.5 1668.5,910.5C 1669.83,910.5 1671.17,910.5 1672.5,910.5C 1672.86,912.911 1671.86,914.411 1669.5,915C 1670.9,915.41 1672.23,915.91 1673.5,916.5 Z"/></g>
<g><path style="opacity:1" fill="#aaaea2" d="M 1775.5,910.5 C 1780.1,911.018 1780.44,912.351 1776.5,914.5C 1777.38,915.251 1778.38,915.751 1779.5,916C 1778.83,916.167 1778.17,916.333 1777.5,916.5C 1775.96,914.853 1774.29,914.02 1772.5,914C 1774.43,913.578 1775.43,912.411 1775.5,910.5 Z"/></g>
<g><path style="opacity:1" fill="#94988b" d="M 1687.5,912.5 C 1688.77,913.189 1688.77,914.023 1687.5,915C 1688.17,915.333 1688.83,915.667 1689.5,916C 1688.17,916.667 1686.83,916.667 1685.5,916C 1686.31,914.887 1686.97,913.721 1687.5,912.5 Z"/></g>
<g><path style="opacity:1" fill="#e6ebde" d="M 1898.5,934.5 C 1365.83,934.5 833.167,934.5 300.5,934.5C 283.833,934.5 267.167,934.5 250.5,934.5C 171.833,934.5 93.1667,934.5 14.5,934.5C 34.9514,932.294 55.6181,931.128 76.5,931C 369.833,930.833 663.167,930.667 956.5,930.5C 1249.83,930.667 1543.17,930.833 1836.5,931C 1857.38,931.128 1878.05,932.294 1898.5,934.5 Z"/></g>
<g><path style="opacity:1" fill="#fdfef7" d="M -0.5,934.5 C 4.5,934.5 9.5,934.5 14.5,934.5C 93.1667,934.5 171.833,934.5 250.5,934.5C 250.5,948.167 250.5,961.833 250.5,975.5C 250.5,976.5 250.5,977.5 250.5,978.5C 248.833,978.5 247.167,978.5 245.5,978.5C 245.5,977.5 245.5,976.5 245.5,975.5C 230.833,975.5 216.167,975.5 201.5,975.5C 201.5,976.5 201.5,977.5 201.5,978.5C 198.833,978.5 196.167,978.5 193.5,978.5C 193.5,977.5 193.5,976.5 193.5,975.5C 178.833,975.5 164.167,975.5 149.5,975.5C 149.5,976.5 149.5,977.5 149.5,978.5C 99.5,978.5 49.5,978.5 -0.5,978.5C -0.5,963.833 -0.5,949.167 -0.5,934.5 Z"/></g>
<g><path style="opacity:1" fill="#d5dacf" d="M 250.5,934.5 C 267.167,934.5 283.833,934.5 300.5,934.5C 300.5,948.167 300.5,961.833 300.5,975.5C 283.833,975.5 267.167,975.5 250.5,975.5C 250.5,961.833 250.5,948.167 250.5,934.5 Z"/></g>
<g><path style="opacity:1" fill="#fefef6" d="M 300.5,934.5 C 833.167,934.5 1365.83,934.5 1898.5,934.5C 1904.5,934.5 1910.5,934.5 1916.5,934.5C 1916.5,949.167 1916.5,963.833 1916.5,978.5C 1377.83,978.5 839.167,978.5 300.5,978.5C 300.5,977.5 300.5,976.5 300.5,975.5C 300.5,961.833 300.5,948.167 300.5,934.5 Z"/></g>
<g><path style="opacity:1" fill="#515549" d="M 1881.5,940.5 C 1888,940.138 1889.67,942.638 1886.5,948C 1890.17,954 1888.5,956.667 1881.5,956C 1878.83,953.333 1878.83,950.667 1881.5,948C 1878.91,945.506 1878.91,943.006 1881.5,940.5 Z"/></g>
<g><path style="opacity:1" fill="#e6e0f1" d="M 28.5,946.5 C 26.396,946.201 24.396,946.534 22.5,947.5C 21.4116,948.934 20.0783,949.934 18.5,950.5C 18.6309,949.624 18.2975,948.957 17.5,948.5C 13.3259,950.294 8.99253,951.628 4.5,952.5C 8.19468,943.153 14.8613,939.986 24.5,943C 26.3237,943.66 27.657,944.827 28.5,946.5 Z"/></g>
<g><path style="opacity:1" fill="#f1f2e9" d="M 1881.5,942.5 C 1883.17,942.5 1884.83,942.5 1886.5,942.5C 1884.9,949.095 1883.23,949.095 1881.5,942.5 Z"/></g>
<g><path style="opacity:1" fill="#75827f" d="M 166.5,943.5 C 181.219,942.615 186.719,949.281 183,963.5C 178.824,969.112 173.324,970.945 166.5,969C 159.22,965.269 156.72,959.435 159,951.5C 160.69,947.979 163.19,945.312 166.5,943.5 Z"/></g>
<g><path style="opacity:1" fill="#64a2f5" d="M 63.5,942.5 C 78.7129,942.868 83.8796,950.201 79,964.5C 69.0003,973.5 60.667,972.167 54,960.5C 52.7037,952.091 55.8704,946.091 63.5,942.5 Z"/></g>
<g><path style="opacity:1" fill="#44483c" d="M 1862.5,944.5 C 1864.46,944.948 1864.8,945.948 1863.5,947.5C 1862.61,946.675 1862.28,945.675 1862.5,944.5 Z"/></g>
<g><path style="opacity:1" fill="#447afc" d="M 124.5,968.5 C 121.167,968.5 117.833,968.5 114.5,968.5C 110.981,967.987 108.647,965.987 107.5,962.5C 105.577,955.846 106.911,950.013 111.5,945C 126.471,940.401 133.304,945.901 132,961.5C 130.98,962.891 130.147,964.391 129.5,966C 127.751,966.785 126.084,967.618 124.5,968.5 Z"/></g>
<g><path style="opacity:1" fill="#f98cdc" d="M 28.5,946.5 C 28.5,947.833 29.1667,948.5 30.5,948.5C 28.2829,950.08 25.6163,951.08 22.5,951.5C 20.9951,952.842 20.3285,954.508 20.5,956.5C 18.8235,955.817 18.1568,954.483 18.5,952.5C 18.5,951.833 18.5,951.167 18.5,950.5C 20.0783,949.934 21.4116,948.934 22.5,947.5C 24.396,946.534 26.396,946.201 28.5,946.5 Z"/></g>
<g><path style="opacity:1" fill="#568eda" d="M 218.5,944.5 C 234.698,943.519 239.865,950.519 234,965.5C 224.708,973.007 217.042,971.674 211,961.5C 210.175,957.789 210.341,954.122 211.5,950.5C 213.878,948.448 216.211,946.448 218.5,944.5 Z"/></g>
<g><path style="opacity:1" fill="#eff9fb" d="M 216.5,947.5 C 221.179,947.334 225.845,947.501 230.5,948C 226.437,948.516 222.437,949.349 218.5,950.5C 217.167,950.333 215.833,950.167 214.5,950C 215.381,949.292 216.047,948.458 216.5,947.5 Z"/></g>
<g><path style="opacity:1" fill="#32362a" d="M 1708.5,947.5 C 1711.97,946.875 1714.8,947.875 1717,950.5C 1717.5,954.152 1717.67,957.818 1717.5,961.5C 1713.5,961.5 1709.5,961.5 1705.5,961.5C 1705.33,957.818 1705.5,954.152 1706,950.5C 1707.04,949.627 1707.88,948.627 1708.5,947.5 Z"/></g>
<g><path style="opacity:1" fill="#cdd2c5" d="M 1710.5,948.5 C 1712.34,948.639 1712.67,949.306 1711.5,950.5C 1710.7,950.043 1710.37,949.376 1710.5,948.5 Z"/></g>
<g><path style="opacity:1" fill="#ccd9d6" d="M 163.5,950.5 C 163.56,949.957 163.893,949.624 164.5,949.5C 166.772,950.441 168.772,951.774 170.5,953.5C 167.554,956.429 166.387,956.095 167,952.5C 165.887,951.695 164.721,951.028 163.5,950.5 Z"/></g>
<g><path style="opacity:1" fill="#5f94de" d="M 1618.5,948.5 C 1628.01,948.198 1631.18,952.531 1628,961.5C 1623.67,965.5 1619.33,965.5 1615,961.5C 1612.63,956.11 1613.8,951.776 1618.5,948.5 Z"/></g>
<g><path style="opacity:1" fill="#4a4e42" d="M 1851.5,940.5 C 1858.08,940.004 1859.75,942.504 1856.5,948C 1860.48,950.716 1860.48,953.383 1856.5,956C 1853.95,956.851 1851.61,956.518 1849.5,955C 1852.09,954.774 1854.59,954.274 1857,953.5C 1857.68,952.216 1857.52,951.049 1856.5,950C 1850.15,949.256 1849.98,948.089 1856,946.5C 1856.49,945.207 1856.66,943.873 1856.5,942.5C 1854.41,942.318 1852.41,942.652 1850.5,943.5C 1850.17,943.167 1849.83,942.833 1849.5,942.5C 1850.24,941.818 1850.91,941.151 1851.5,940.5 Z"/></g>
<g><path style="opacity:1" fill="#f5f6ed" d="M 1882.5,949.5 C 1886,949.478 1887.33,950.978 1886.5,954C 1884.87,954.494 1883.2,954.66 1881.5,954.5C 1881.37,952.708 1881.7,951.042 1882.5,949.5 Z"/></g>
<g><path style="opacity:1" fill="#c3d7f5" d="M 123.5,947.5 C 125.814,948.179 126.147,949.512 124.5,951.5C 120.04,955.687 116.373,955.02 113.5,949.5C 113.833,949.167 114.167,948.833 114.5,948.5C 116.625,952.741 119.458,953.408 123,950.5C 123.483,949.552 123.649,948.552 123.5,947.5 Z"/></g>
<g><path style="opacity:1" fill="#33372b" d="M 1679.5,949.5 C 1680.74,951.931 1681.91,951.931 1683,949.5C 1684.36,950.38 1685.86,950.714 1687.5,950.5C 1687.5,954.833 1687.5,959.167 1687.5,963.5C 1683.5,963.5 1679.5,963.5 1675.5,963.5C 1675.5,959.167 1675.5,954.833 1675.5,950.5C 1677.1,950.768 1678.43,950.434 1679.5,949.5 Z"/></g>
<g><path style="opacity:1" fill="#32362a" d="M 1734.5,950.5 C 1739.17,950.5 1743.83,950.5 1748.5,950.5C 1748.5,954.167 1748.5,957.833 1748.5,961.5C 1743.83,962.833 1739.17,962.833 1734.5,961.5C 1734.5,957.833 1734.5,954.167 1734.5,950.5 Z"/></g>
<g><path style="opacity:1" fill="#303528" d="M 1770.5,950.5 C 1771.65,954.311 1771.81,958.311 1771,962.5C 1769.49,960.081 1767.32,959.081 1764.5,959.5C 1764.5,957.5 1764.5,955.5 1764.5,953.5C 1767.31,953.975 1769.31,952.975 1770.5,950.5 Z"/></g>
<g><path style="opacity:1" fill="#bdf0fb" d="M 18.5,950.5 C 18.5,951.167 18.5,951.833 18.5,952.5C 17.2521,953.334 16.5854,954.667 16.5,956.5C 16.87,958.667 17.5367,960.667 18.5,962.5C 13.5695,961.966 8.90279,960.633 4.5,958.5C 4.5,956.5 4.5,954.5 4.5,952.5C 8.99253,951.628 13.3259,950.294 17.5,948.5C 18.2975,948.957 18.6309,949.624 18.5,950.5 Z"/></g>
<g><path style="opacity:1" fill="#9cc0f8" d="M 66.5,952.5 C 65.1667,955.167 65.1667,957.833 66.5,960.5C 63.7531,960.813 61.0865,960.48 58.5,959.5C 57.1667,957.5 57.1667,955.5 58.5,953.5C 61.0865,952.52 63.7531,952.187 66.5,952.5 Z"/></g>
<g><path style="opacity:1" fill="#f6faf9" d="M 66.5,960.5 C 65.1667,957.833 65.1667,955.167 66.5,952.5C 71.9844,948.911 75.651,950.245 77.5,956.5C 75.651,962.755 71.9844,964.089 66.5,960.5 Z"/></g>
<g><path style="opacity:1" fill="#f5fffe" d="M 1620.5,952.5 C 1621.69,952.97 1622.36,953.97 1622.5,955.5C 1622.17,956.5 1621.83,957.5 1621.5,958.5C 1620.53,956.604 1620.2,954.604 1620.5,952.5 Z"/></g>
<g><path style="opacity:1" fill="#9dbaec" d="M 1650.5,949.5 C 1652.31,950.63 1654.31,951.296 1656.5,951.5C 1656.38,953.484 1657.05,955.15 1658.5,956.5C 1657.05,957.85 1656.38,959.516 1656.5,961.5C 1654.52,961.383 1652.85,962.05 1651.5,963.5C 1650.15,962.05 1648.48,961.383 1646.5,961.5C 1646.62,959.516 1645.95,957.85 1644.5,956.5C 1645.95,955.15 1646.62,953.484 1646.5,951.5C 1648.38,951.771 1649.71,951.104 1650.5,949.5 Z"/></g>
<g><path style="opacity:1" fill="#fefff6" d="M 1677.5,952.5 C 1680,953.779 1682.5,953.779 1685,952.5C 1685.5,955.482 1685.66,958.482 1685.5,961.5C 1682.83,961.5 1680.17,961.5 1677.5,961.5C 1677.5,958.5 1677.5,955.5 1677.5,952.5 Z"/></g>
<g><path style="opacity:1" fill="#fcfcf4" d="M 1736.5,952.5 C 1739.83,952.5 1743.17,952.5 1746.5,952.5C 1747.45,959.86 1744.45,962.193 1737.5,959.5C 1736.53,957.257 1736.19,954.924 1736.5,952.5 Z"/></g>
<g><path style="opacity:1" fill="#464a3e" d="M 1839.5,940.5 C 1846.38,940.307 1848.21,943.307 1845,949.5C 1843.5,951 1842,952.5 1840.5,954C 1842.9,954.186 1845.23,954.686 1847.5,955.5C 1837.09,957.932 1835.59,955.932 1843,949.5C 1844.2,947.323 1844.7,944.989 1844.5,942.5C 1842.53,942.261 1840.7,942.594 1839,943.5C 1838.53,942.423 1838.7,941.423 1839.5,940.5 Z"/></g>
<g><path style="opacity:1" fill="#f7fbf9" d="M 1650.5,953.5 C 1652,953.415 1653,954.081 1653.5,955.5C 1652.34,961.751 1651.01,961.917 1649.5,956C 1650.25,955.329 1650.59,954.496 1650.5,953.5 Z"/></g>
<g><path style="opacity:1" fill="#44483c" d="M 1798.5,953.5 C 1801.23,954.713 1803.56,956.546 1805.5,959C 1801.5,959.667 1797.5,959.667 1793.5,959C 1795.37,957.296 1797.04,955.463 1798.5,953.5 Z"/></g>
<g><path style="opacity:1" fill="#45493d" d="M 1862.5,953.5 C 1864.46,953.948 1864.8,954.948 1863.5,956.5C 1862.61,955.675 1862.28,954.675 1862.5,953.5 Z"/></g>
<g><path style="opacity:1" fill="#585c50" d="M 1869.5,940.5 C 1872.55,939.855 1874.71,940.855 1876,943.5C 1876.67,947.167 1876.67,950.833 1876,954.5C 1872.84,957.399 1870.18,957.065 1868,953.5C 1866.98,948.871 1867.48,944.538 1869.5,940.5 Z"/></g>
<g><path style="opacity:1" fill="#fefef6" d="M 1870.5,942.5 C 1871.82,942.33 1872.99,942.663 1874,943.5C 1874.67,946.833 1874.67,950.167 1874,953.5C 1872.67,954.833 1871.33,954.833 1870,953.5C 1869.24,949.745 1869.41,946.078 1870.5,942.5 Z"/></g>
<g><path style="opacity:1" fill="#676b5f" d="M 1773.5,954.5 C 1774.59,954.62 1775.25,955.287 1775.5,956.5C 1775.17,957.167 1774.83,957.833 1774.5,958.5C 1773.57,957.311 1773.24,955.978 1773.5,954.5 Z"/></g>
<g><path style="opacity:1" fill="#f6ccfc" d="M 18.5,952.5 C 18.1568,954.483 18.8235,955.817 20.5,956.5C 21.7433,958.753 23.41,960.753 25.5,962.5C 26.935,960.599 28.6017,960.266 30.5,961.5C 26.7697,965.1 22.7697,965.433 18.5,962.5C 17.5367,960.667 16.87,958.667 16.5,956.5C 16.5854,954.667 17.2521,953.334 18.5,952.5 Z"/></g>
<g><path style="opacity:1" fill="#e7e0f0" d="M 30.5,948.5 C 35.3696,960.514 31.3696,967.847 18.5,970.5C 11.016,969.676 6.3493,965.676 4.5,958.5C 8.90279,960.633 13.5695,961.966 18.5,962.5C 22.7697,965.433 26.7697,965.1 30.5,961.5C 28.6017,960.266 26.935,960.599 25.5,962.5C 23.41,960.753 21.7433,958.753 20.5,956.5C 20.3285,954.508 20.9951,952.842 22.5,951.5C 25.6163,951.08 28.2829,950.08 30.5,948.5 Z"/></g>
<g><path style="opacity:1" fill="#a2deeb" d="M 270.5,940.5 C 281.962,939.652 289.295,944.652 292.5,955.5C 290.833,965.167 285.167,970.833 275.5,972.5C 263.137,970.153 257.804,962.82 259.5,950.5C 262.959,946.696 266.626,943.363 270.5,940.5 Z"/></g>
<g><path style="opacity:1" fill="#4c8791" d="M 269.5,955.5 C 268.294,956.88 268.627,958.047 270.5,959C 267.464,958.143 266.798,959.31 268.5,962.5C 267.675,963.386 266.675,963.719 265.5,963.5C 265.665,961.173 266.331,959.007 267.5,957C 266.424,955.274 266.257,953.441 267,951.5C 267.122,953.437 267.955,954.77 269.5,955.5 Z"/></g>
<g><path style="opacity:1" fill="#5d98a3" d="M 269.5,955.5 C 272.21,953.055 275.044,950.722 278,948.5C 279.491,950.004 281.324,950.837 283.5,951C 285.054,953.897 284.554,956.397 282,958.5C 281.885,956.893 282.385,955.393 283.5,954C 283.387,952.72 282.72,951.887 281.5,951.5C 280.167,955.167 280.167,958.833 281.5,962.5C 283.367,959.771 284.367,960.104 284.5,963.5C 280.71,964.678 277.043,965.845 273.5,967C 272.257,965.846 271.257,964.512 270.5,963C 272.047,963.713 273.714,964.546 275.5,965.5C 276.167,965.167 276.833,964.833 277.5,964.5C 276.335,963.416 275.002,962.583 273.5,962C 275.313,962.046 276.979,961.88 278.5,961.5C 280.037,957.937 279.704,954.603 277.5,951.5C 274.78,952.86 272.114,954.193 269.5,955.5 Z"/></g>
<g><path style="opacity:1" fill="#4c5044" d="M 1707.5,962.5 C 1710.17,962.5 1712.83,962.5 1715.5,962.5C 1715.5,963.5 1715.5,964.5 1715.5,965.5C 1712.83,965.5 1710.17,965.5 1707.5,965.5C 1707.5,964.5 1707.5,963.5 1707.5,962.5 Z"/></g>
<g><path style="opacity:1" fill="#3b3f33" d="M 1851.5,962.5 C 1852.79,964.048 1853.46,966.048 1853.5,968.5C 1853.33,970.5 1853.17,972.5 1853,974.5C 1852.67,971.167 1852.33,967.833 1852,964.5C 1851.28,965.451 1850.45,965.617 1849.5,965C 1850.38,964.292 1851.05,963.458 1851.5,962.5 Z"/></g>
<g><path style="opacity:1" fill="#3b3f33" d="M 1867.5,962.5 C 1868.79,964.048 1869.46,966.048 1869.5,968.5C 1869.33,970.5 1869.17,972.5 1869,974.5C 1868.67,971.167 1868.33,967.833 1868,964.5C 1867.28,965.451 1866.45,965.617 1865.5,965C 1866.38,964.292 1867.05,963.458 1867.5,962.5 Z"/></g>
<g><path style="opacity:1" fill="#575b4f" d="M 1895.5,963.5 C 1893.77,963.815 1892.11,963.981 1890.5,964C 1892.15,962.323 1893.82,962.156 1895.5,963.5 Z"/></g>
<g><path style="opacity:1" fill="#ecede4" d="M 1834.5,963.5 C 1835.83,966.833 1835.83,970.167 1834.5,973.5C 1831.11,973.625 1829.77,971.958 1830.5,968.5C 1829.77,965.042 1831.11,963.375 1834.5,963.5 Z"/></g>
<g><path style="opacity:1" fill="#474b3f" d="M 1840.5,962.5 C 1843.59,961.83 1845.26,962.997 1845.5,966C 1844.82,968.524 1843.49,970.691 1841.5,972.5C 1843.08,973.298 1844.74,973.798 1846.5,974C 1843.77,974.818 1841.11,974.652 1838.5,973.5C 1840.7,971.133 1842.7,968.633 1844.5,966C 1844.39,964.72 1843.72,963.887 1842.5,963.5C 1840.11,964.988 1839.45,964.655 1840.5,962.5 Z"/></g>
<g><path style="opacity:1" fill="#6f7367" d="M 1877.5,962.5 C 1878.79,964.048 1879.46,966.048 1879.5,968.5C 1879.17,970.5 1878.83,972.5 1878.5,974.5C 1878.04,971.045 1877.04,967.878 1875.5,965C 1876.38,964.292 1877.05,963.458 1877.5,962.5 Z"/></g>
<g><path style="opacity:1" fill="#dfe1d7" d="M 1905.5,963.5 C 1905.5,964.833 1905.5,966.167 1905.5,967.5C 1903.65,967.778 1902.32,967.111 1901.5,965.5C 1902.32,963.889 1903.65,963.222 1905.5,963.5 Z"/></g>
<g><path style="opacity:1" fill="#3e4236" d="M 1834.5,963.5 C 1835.12,963.611 1835.62,963.944 1836,964.5C 1836.67,967.167 1836.67,969.833 1836,972.5C 1835.62,973.056 1835.12,973.389 1834.5,973.5C 1835.83,970.167 1835.83,966.833 1834.5,963.5 Z"/></g>
<g><path style="opacity:1" fill="#62665a" d="M 1905.5,963.5 C 1908.02,964.665 1908.02,965.998 1905.5,967.5C 1905.5,966.167 1905.5,964.833 1905.5,963.5 Z"/></g>
<g><path style="opacity:1" fill="#555a4d" d="M 1895.5,963.5 C 1897.34,964.204 1897.84,965.537 1897,967.5C 1895.88,969.624 1894.38,971.457 1892.5,973C 1894.17,973.333 1895.83,973.667 1897.5,974C 1889.27,975.265 1888.43,973.431 1895,968.5C 1895.49,966.866 1895.66,965.199 1895.5,963.5 Z"/></g>
<g><path style="opacity:1" fill="#53574b" d="M 1834.5,963.5 C 1831.11,963.375 1829.77,965.042 1830.5,968.5C 1829.77,971.958 1831.11,973.625 1834.5,973.5C 1830.36,975.066 1828.36,973.399 1828.5,968.5C 1828.36,963.601 1830.36,961.934 1834.5,963.5 Z"/></g>
<g><path style="opacity:1" fill="#54584c" d="M 1861.5,962.5 C 1862.24,962.369 1862.91,962.536 1863.5,963C 1857.24,978.238 1856.58,978.071 1861.5,962.5 Z"/></g>
<g><path style="opacity:1" fill="#4a4e42" d="M 1905.5,963.5 C 1903.65,963.222 1902.32,963.889 1901.5,965.5C 1902.32,967.111 1903.65,967.778 1905.5,967.5C 1908.99,972.711 1907.66,974.878 1901.5,974C 1898.89,972.35 1898.89,970.85 1901.5,969.5C 1900.68,967.545 1900.51,965.545 1901,963.5C 1902.62,962.199 1904.12,962.199 1905.5,963.5 Z"/></g>
<g><path style="opacity:1" fill="#7fa2e9" d="M 114.5,968.5 C 117.833,968.5 121.167,968.5 124.5,968.5C 121.167,971.167 117.833,971.167 114.5,968.5 Z"/></g>
<g><path style="opacity:1" fill="#565a4d" d="M 1887.5,962.5 C 1887.94,966.712 1886.77,970.712 1884,974.5C 1884.63,970.423 1885.8,966.423 1887.5,962.5 Z"/></g>
<g><path style="opacity:1" fill="#eeefe6" d="M 1901.5,969.5 C 1902.87,969.343 1904.21,969.51 1905.5,970C 1906.67,972.829 1905.67,973.829 1902.5,973C 1901.66,971.989 1901.33,970.822 1901.5,969.5 Z"/></g>
<g><path style="opacity:1" fill="#4d5145" d="M 1820.5,962.5 C 1825.68,961.507 1827.51,963.507 1826,968.5C 1824.5,970 1823,971.5 1821.5,973C 1823.5,973.333 1825.5,973.667 1827.5,974C 1824.77,974.818 1822.11,974.652 1819.5,973.5C 1821.7,971.133 1823.7,968.633 1825.5,966C 1825.36,965.228 1825.02,964.561 1824.5,964C 1822.79,963.805 1821.13,963.805 1819.5,964C 1820.06,963.617 1820.39,963.117 1820.5,962.5 Z"/></g>
<g><path style="opacity:1" fill="#bcc1b4" d="M 193.5,978.5 C 178.833,978.5 164.167,978.5 149.5,978.5C 149.5,977.5 149.5,976.5 149.5,975.5C 164.167,975.5 178.833,975.5 193.5,975.5C 193.5,976.5 193.5,977.5 193.5,978.5 Z"/></g>
<g><path style="opacity:1" fill="#62675a" d="M 245.5,978.5 C 230.833,978.5 216.167,978.5 201.5,978.5C 201.5,977.5 201.5,976.5 201.5,975.5C 216.167,975.5 230.833,975.5 245.5,975.5C 245.5,976.5 245.5,977.5 245.5,978.5 Z"/></g>
<g><path style="opacity:1" fill="#303528" d="M 250.5,975.5 C 267.167,975.5 283.833,975.5 300.5,975.5C 300.5,976.5 300.5,977.5 300.5,978.5C 283.833,978.5 267.167,978.5 250.5,978.5C 250.5,977.5 250.5,976.5 250.5,975.5 Z"/></g>
</svg>
