<?xml version="1.0" encoding="UTF-8"?>
<!DOCTYPE svg PUBLIC "-//W3C//DTD SVG 1.1//EN" "http://www.w3.org/Graphics/SVG/1.1/DTD/svg11.dtd">
<svg xmlns="http://www.w3.org/2000/svg" version="1.1" width="2557px" height="1373px" style="shape-rendering:geometricPrecision; text-rendering:geometricPrecision; image-rendering:optimizeQuality; fill-rule:evenodd; clip-rule:evenodd" xmlns:xlink="http://www.w3.org/1999/xlink">
<g><path style="opacity:1" fill="#efefef" d="M -0.5,-0.5 C 66.1667,-0.5 132.833,-0.5 199.5,-0.5C 193.083,4.58669 190.916,11.2534 193,19.5C 194.167,24.6667 197.333,27.8333 202.5,29C 566.5,29.1667 930.5,29.3333 1294.5,29.5C 1658.5,29.3333 2022.5,29.1667 2386.5,29C 2391.67,27.8333 2394.83,24.6667 2396,19.5C 2398.08,11.2534 2395.92,4.58669 2389.5,-0.5C 2445.17,-0.5 2500.83,-0.5 2556.5,-0.5C 2556.5,457.167 2556.5,914.833 2556.5,1372.5C 1704.17,1372.5 851.833,1372.5 -0.5,1372.5C -0.5,914.833 -0.5,457.167 -0.5,-0.5 Z"/></g>
<g><path style="opacity:1" fill="#e3e3e3" d="M 199.5,-0.5 C 929.5,-0.5 1659.5,-0.5 2389.5,-0.5C 2395.92,4.58669 2398.08,11.2534 2396,19.5C 2394.83,24.6667 2391.67,27.8333 2386.5,29C 2022.5,29.1667 1658.5,29.3333 1294.5,29.5C 930.5,29.3333 566.5,29.1667 202.5,29C 197.333,27.8333 194.167,24.6667 193,19.5C 190.916,11.2534 193.083,4.58669 199.5,-0.5 Z"/></g>
<g><path style="opacity:1" fill="#737373" d="M 166.5,6.5 C 166.897,5.47498 167.563,5.30831 168.5,6C 171.219,8.38217 173.553,11.0488 175.5,14C 173.319,17.8623 170.319,20.529 166.5,22C 168.598,19.146 170.931,16.4794 173.5,14C 170.933,11.6041 168.6,9.10413 166.5,6.5 Z"/></g>
<g><path style="opacity:1" fill="#4a4a4a" d="M 2489.5,5.5 C 2495.17,5.5 2500.83,5.5 2506.5,5.5C 2506.5,11.1667 2506.5,16.8333 2506.5,22.5C 2500.83,22.5 2495.17,22.5 2489.5,22.5C 2489.5,16.8333 2489.5,11.1667 2489.5,5.5 Z"/></g>
<g><path style="opacity:1" fill="#828282" d="M 2537.5,15.5 C 2534.1,17.3883 2531.1,19.8883 2528.5,23C 2527.83,23.6667 2527.17,23.6667 2526.5,23C 2528.8,19.7026 2531.46,16.7026 2534.5,14C 2531.65,11.3176 2528.98,8.48426 2526.5,5.5C 2527,4.47899 2527.67,4.31232 2528.5,5C 2531,7.5 2533.5,10 2536,12.5C 2538.7,9.46202 2541.7,6.79535 2545,4.5C 2545.67,5.16667 2545.67,5.83333 2545,6.5C 2541.89,9.10088 2539.39,12.1009 2537.5,15.5 Z"/></g>
<g><path style="opacity:1" fill="#e9e9e9" d="M 2490.5,6.5 C 2495.5,6.5 2500.5,6.5 2505.5,6.5C 2505.5,11.5 2505.5,16.5 2505.5,21.5C 2500.5,21.5 2495.5,21.5 2490.5,21.5C 2490.5,16.5 2490.5,11.5 2490.5,6.5 Z"/></g>
<g><path style="opacity:1" fill="#9f8785" d="M 338.5,9.5 C 340.5,9.5 342.5,9.5 344.5,9.5C 344.378,13.8383 344.045,14.1716 343.5,10.5C 342.167,10.5 340.833,10.5 339.5,10.5C 339.5,11.8333 339.5,13.1667 339.5,14.5C 342.318,14.4952 343.485,15.8285 343,18.5C 340.852,14.3858 339.518,14.7191 339,19.5C 338.502,16.1832 338.335,12.8499 338.5,9.5 Z"/></g>
<g><path style="opacity:1" fill="#849ebb" d="M 347.5,9.5 C 348.477,12.2869 348.81,15.2869 348.5,18.5C 353.5,19.0031 353.167,19.3364 347.5,19.5C 347.5,16.1667 347.5,12.8333 347.5,9.5 Z"/></g>
<g><path style="opacity:1" fill="#a0a0a8" d="M 357.5,8.5 C 359.084,9.38183 360.751,10.2152 362.5,11C 361.167,11.3333 359.833,11.6667 358.5,12C 358.833,12.3333 359.167,12.6667 359.5,13C 357.714,13.7845 356.214,14.9512 355,16.5C 354.667,14.9532 355.167,13.6199 356.5,12.5C 355.975,11.8076 355.308,11.3076 354.5,11C 356.119,10.7645 357.119,9.93112 357.5,8.5 Z"/></g>
<g><path style="opacity:1" fill="#9ba1ae" d="M 385.5,7.5 C 387.048,7.82124 387.715,8.82124 387.5,10.5C 389.5,10.5 391.5,10.5 393.5,10.5C 393.453,13.5682 392.953,16.5682 392,19.5C 391.503,16.854 391.336,14.1873 391.5,11.5C 387.962,11.2153 386.129,12.882 386,16.5C 385.506,14.8659 385.34,13.1992 385.5,11.5C 380.167,11.1667 380.167,10.8333 385.5,10.5C 385.5,9.5 385.5,8.5 385.5,7.5 Z"/></g>
<g><path style="opacity:1" fill="#a3a1a6" d="M 206.5,7.5 C 207.404,8.20895 207.737,9.20895 207.5,10.5C 209.484,10.6168 211.15,9.95012 212.5,8.5C 213.293,9.35538 212.96,10.1887 211.5,11C 212.833,11.6667 214.167,11.6667 215.5,11C 214.304,10.3457 214.304,9.84569 215.5,9.5C 216.5,9.83333 217.167,10.5 217.5,11.5C 216.271,12.2811 214.938,12.7811 213.5,13C 214.448,13.4828 215.448,13.6495 216.5,13.5C 216.773,15.451 216.107,16.951 214.5,18C 216.707,20.9835 216.207,21.1502 213,18.5C 212.667,18.8333 212.333,19.1667 212,19.5C 210.903,17.9474 209.57,16.614 208,15.5C 207.468,22.075 206.634,22.075 205.5,15.5C 206.393,12.9159 206.726,10.2492 206.5,7.5 Z"/></g>
<g><path style="opacity:1" fill="#9e9ca1" d="M 223.5,8.5 C 225.801,9.06043 228.134,9.56043 230.5,10C 223.927,10.5282 223.927,11.3615 230.5,12.5C 229.934,13.2913 229.101,13.2913 228,12.5C 226.726,13.5353 225.56,14.702 224.5,16C 225.784,16.6838 226.951,16.5171 228,15.5C 230.122,16.2199 230.622,17.3866 229.5,19C 228.004,19.5074 226.837,19.0074 226,17.5C 225,21.5 224,21.5 223,17.5C 221.48,19.8345 219.98,19.6679 218.5,17C 222.245,17.0354 222.912,16.0354 220.5,14C 221.167,13.6667 221.833,13.3333 222.5,13C 220.915,12.9152 219.582,12.7486 218.5,12.5C 225.073,11.3615 225.073,10.5282 218.5,10C 220.382,9.80192 222.048,9.30192 223.5,8.5 Z"/></g>
<g><path style="opacity:1" fill="#888888" d="M 55.5,6.5 C 58.5628,8.05121 61.2295,10.2179 63.5,13C 62.5509,13.6172 61.7175,13.4506 61,12.5C 60.5017,15.8168 60.335,19.1501 60.5,22.5C 56.1667,22.5 51.8333,22.5 47.5,22.5C 47.665,19.1501 47.4983,15.8168 47,12.5C 46.2825,13.4506 45.4491,13.6172 44.5,13C 47.3688,9.79593 50.5354,6.9626 54,4.5C 54.7172,5.0442 55.2172,5.71087 55.5,6.5 Z"/></g>
<g><path style="opacity:1" fill="#e8e8e8" d="M 55.5,6.5 C 55.6854,8.19578 56.5187,9.52912 58,10.5C 58.4986,14.1516 58.6653,17.8183 58.5,21.5C 55.5,21.5 52.5,21.5 49.5,21.5C 49.3347,17.8183 49.5014,14.1516 50,10.5C 51.451,8.53594 53.2843,7.20261 55.5,6.5 Z"/></g>
<g><path style="opacity:1" fill="#666666" d="M 133.5,4.5 C 134.525,4.89657 134.692,5.56323 134,6.5C 131.447,8.71625 129.28,11.2162 127.5,14C 129.28,16.7838 131.447,19.2838 134,21.5C 134.667,22.1667 134.667,22.8333 134,23.5C 130.783,20.6195 127.95,17.4529 125.5,14C 127.988,10.6788 130.655,7.51215 133.5,4.5 Z"/></g>
<g><path style="opacity:1" fill="#a39e9b" d="M 273.5,9.5 C 277.311,8.35472 281.311,8.18806 285.5,9C 284.167,9.33333 282.833,9.66667 281.5,10C 282.448,10.4828 283.448,10.6495 284.5,10.5C 284.33,11.8221 284.663,12.9887 285.5,14C 281.459,14.8265 277.459,14.6599 273.5,13.5C 275.576,12.9003 277.576,12.567 279.5,12.5C 277.577,11.6922 275.577,11.1922 273.5,11C 282.81,10.1719 282.81,9.6719 273.5,9.5 Z"/></g>
<g><path style="opacity:1" fill="#7a7a7a" d="M 85.5,10.5 C 87.3717,12.0615 89.7051,13.0615 92.5,13.5C 89.3553,14.8032 86.3553,14.8032 83.5,13.5C 84.1667,12.5 84.8333,11.5 85.5,10.5 Z"/></g>
<g><path style="opacity:1" fill="#93959a" d="M 248.5,10.5 C 250.628,9.37086 252.961,9.20419 255.5,10C 251.998,12.0105 251.998,13.3439 255.5,14C 249.833,15.3633 248.833,14.3633 252.5,11C 251.207,10.51 249.873,10.3433 248.5,10.5 Z"/></g>
<g><path style="opacity:1" fill="#5a5a5a" d="M 2420.5,5.5 C 2423.68,7.84579 2426.35,10.6791 2428.5,14C 2426.39,17.1185 2423.89,19.9518 2421,22.5C 2420.33,21.8333 2420.33,21.1667 2421,20.5C 2422.69,18.9825 2424.19,17.3159 2425.5,15.5C 2420.87,14.6717 2416.2,14.1717 2411.5,14C 2416.5,13.6667 2421.5,13.3333 2426.5,13C 2423.88,10.8943 2421.88,8.3943 2420.5,5.5 Z"/></g>
<g><path style="opacity:1" fill="#a6a3a3" d="M 264.5,8.5 C 266.369,10.889 268.203,10.889 270,8.5C 270.497,11.146 270.664,13.8127 270.5,16.5C 265.532,16.8659 265.866,17.3659 271.5,18C 269.22,18.2117 267.22,19.0451 265.5,20.5C 263.78,19.0451 261.78,18.2117 259.5,18C 265.134,17.3659 265.468,16.8659 260.5,16.5C 260.338,14.4727 260.505,12.4727 261,10.5C 261.741,9.35945 262.575,9.35945 263.5,10.5C 264.298,10.0431 264.631,9.37644 264.5,8.5 Z"/></g>
<g><path style="opacity:1" fill="#8b8b8b" d="M 2537.5,15.5 C 2540.74,17.0713 2543.41,19.4046 2545.5,22.5C 2545,23.521 2544.33,23.6877 2543.5,23C 2540.88,20.8943 2538.88,18.3943 2537.5,15.5 Z"/></g>
<g><path style="opacity:1" fill="#9c979c" d="M 238.5,8.5 C 240.339,9.58192 242.339,10.4153 244.5,11C 243.207,11.49 241.873,11.6567 240.5,11.5C 240.662,13.5273 240.495,15.5273 240,17.5C 239.163,19.0074 237.996,19.5074 236.5,19C 235.987,17.4244 236.654,16.091 238.5,15C 238.095,14.0546 237.428,13.3879 236.5,13C 237.167,12.6667 237.833,12.3333 238.5,12C 236.5,11.6667 234.5,11.3333 232.5,11C 235.051,10.9977 237.051,10.1644 238.5,8.5 Z"/></g>
<g><path style="opacity:1" fill="#b6a59f" d="M 273.5,15.5 C 274.833,15.5 276.167,15.5 277.5,15.5C 277.5,17.1667 277.5,18.8333 277.5,20.5C 276.167,20.5 274.833,20.5 273.5,20.5C 273.5,18.8333 273.5,17.1667 273.5,15.5 Z"/></g>
<g><path style="opacity:1" fill="#96999f" d="M 292.5,8.5 C 294.084,9.38183 295.751,10.2152 297.5,11C 295.114,11.2835 294.448,12.2835 295.5,14C 294.751,15.7337 294.251,17.567 294,19.5C 292.667,16.8333 291.333,16.8333 290,19.5C 289.517,18.552 289.351,17.552 289.5,16.5C 290.675,16.719 291.675,16.3857 292.5,15.5C 291.271,14.7189 289.938,14.2189 288.5,14C 293.833,13 293.833,12 288.5,11C 290.437,10.8784 291.77,10.045 292.5,8.5 Z"/></g>
<g><path style="opacity:1" fill="#928ea1" d="M 315.5,9.5 C 317.024,13.0034 317.358,16.6701 316.5,20.5C 315.511,16.8927 315.177,13.226 315.5,9.5 Z"/></g>
<g><path style="opacity:1" fill="#acafb6" d="M 322.5,9.5 C 323.931,10.0819 325.264,10.9152 326.5,12C 324.342,13.3117 324.009,14.9783 325.5,17C 323.808,21.0304 321.808,21.3637 319.5,18C 321.112,16.518 322.112,14.6847 322.5,12.5C 321.448,12.6495 320.448,12.4828 319.5,12C 321.119,11.7645 322.119,10.9311 322.5,9.5 Z"/></g>
<g><path style="opacity:1" fill="#99a0af" d="M 369.5,9.5 C 370.919,8.54885 372.585,8.21552 374.5,8.5C 374.616,13.1021 372.949,16.9354 369.5,20C 368.833,20.6667 368.167,20.6667 367.5,20C 371.192,17.4503 372.858,13.9503 372.5,9.5C 371.5,9.5 370.5,9.5 369.5,9.5 Z"/></g>
<g><path style="opacity:1" fill="#a3a9b0" d="M 279.5,15.5 C 281.5,15.5 283.5,15.5 285.5,15.5C 285.66,17.1992 285.494,18.8659 285,20.5C 283.301,19.5939 281.467,19.2606 279.5,19.5C 279.5,18.1667 279.5,16.8333 279.5,15.5 Z"/></g>
<g><path style="opacity:1" fill="#a7a5a7" d="M 249.5,16.5 C 252.216,17.1254 254.549,17.7921 256.5,18.5C 252.701,21.7864 250.367,21.1197 249.5,16.5 Z"/></g>
<g><path style="opacity:1" fill="#535353" d="M 85.5,10.5 C 84.8333,11.5 84.1667,12.5 83.5,13.5C 83.3354,10.4816 83.502,7.48162 84,4.5C 84.3333,5.83333 84.6667,7.16667 85,8.5C 88.0498,4.86968 91.8831,3.70302 96.5,5C 102.467,8.39245 103.967,13.2258 101,19.5C 94.2177,25.3882 88.3843,24.5549 83.5,17C 85.6892,18.4683 88.0226,20.135 90.5,22C 96.6599,22.848 100.327,20.1813 101.5,14C 100.327,7.81871 96.6599,5.15204 90.5,6C 88.3395,6.9959 86.6728,8.4959 85.5,10.5 Z"/></g>
<g><path style="opacity:1" fill="#e3e3e3" d="M 14.5,35.5 C 843.833,35.3333 1673.17,35.5 2502.5,36C 2508.34,39.3478 2511.01,44.3478 2510.5,51C 2511.01,57.6522 2508.34,62.6522 2502.5,66C 1673.17,66.6667 843.833,66.6667 14.5,66C 8.66026,62.6522 5.9936,57.6522 6.5,51C 6.12449,44.2508 8.79115,39.0841 14.5,35.5 Z"/></g>
<g><path style="opacity:1" fill="#e0e2e2" d="M 1243.5,49.5 C 1244.5,49.5 1245.5,49.5 1246.5,49.5C 1246.5,51.5 1246.5,53.5 1246.5,55.5C 1245.5,55.5 1244.5,55.5 1243.5,55.5C 1243.5,53.5 1243.5,51.5 1243.5,49.5 Z"/></g>
<g><path style="opacity:1" fill="#907576" d="M 1231.5,45.5 C 1232.45,46.9187 1232.78,48.5853 1232.5,50.5C 1234.17,50.5 1235.83,50.5 1237.5,50.5C 1238.24,43.9316 1238.91,44.0982 1239.5,51C 1238.91,57.9018 1238.24,58.0684 1237.5,51.5C 1235.83,51.5 1234.17,51.5 1232.5,51.5C 1232.66,53.1992 1232.49,54.8659 1232,56.5C 1231.5,52.8484 1231.33,49.1817 1231.5,45.5 Z"/></g>
<g><path style="opacity:1" fill="#5d83a7" d="M 1251.5,48.5 C 1257.17,48.6636 1257.5,48.9969 1252.5,49.5C 1252.66,51.8568 1252.5,54.1902 1252,56.5C 1251.5,53.854 1251.34,51.1873 1251.5,48.5 Z"/></g>
<g><path style="opacity:1" fill="#7b9abc" d="M 1257.5,49.5 C 1258.88,48.1991 1260.38,48.1991 1262,49.5C 1262.67,51.8333 1262.67,54.1667 1262,56.5C 1261.67,54.5 1261.33,52.5 1261,50.5C 1259.99,49.6634 1258.82,49.33 1257.5,49.5 Z"/></g>
<g><path style="opacity:1" fill="#aa9985" d="M 1243.5,49.5 C 1244.83,48.1667 1246.17,48.1667 1247.5,49.5C 1248.83,51.5 1248.83,53.5 1247.5,55.5C 1246.17,56.8333 1244.83,56.8333 1243.5,55.5C 1244.5,55.5 1245.5,55.5 1246.5,55.5C 1246.5,53.5 1246.5,51.5 1246.5,49.5C 1245.5,49.5 1244.5,49.5 1243.5,49.5 Z"/></g>
<g><path style="opacity:1" fill="#778eb7" d="M 1247.5,49.5 C 1250.17,51.5 1250.17,53.5 1247.5,55.5C 1248.83,53.5 1248.83,51.5 1247.5,49.5 Z"/></g>
<g><path style="opacity:1" fill="#988d8e" d="M 1265.5,48.5 C 1268.95,47.7564 1270.62,49.0897 1270.5,52.5C 1268.18,52.2289 1266.18,52.8955 1264.5,54.5C 1263.23,52.2432 1263.56,50.2432 1265.5,48.5 Z"/></g>
<g><path style="opacity:1" fill="#888888" d="M 2487.5,43.5 C 2489.81,45.4773 2492.15,47.4773 2494.5,49.5C 2496.82,47.684 2498.98,45.684 2501,43.5C 2500.11,46.4362 2498.27,48.9362 2495.5,51C 2498.27,53.0638 2500.11,55.5638 2501,58.5C 2498.98,56.316 2496.82,54.316 2494.5,52.5C 2485.81,59.1505 2485.48,58.6505 2493.5,51C 2490.88,48.8943 2488.88,46.3943 2487.5,43.5 Z"/></g>
<g><path style="opacity:1" fill="#7f93ba" d="M 1243.5,49.5 C 1243.5,51.5 1243.5,53.5 1243.5,55.5C 1240.83,53.5 1240.83,51.5 1243.5,49.5 Z"/></g>
<g><path style="opacity:1" fill="#6e6e6e" d="M 2535.5,42.5 C 2537.4,45.3373 2538.07,48.6707 2537.5,52.5C 2550.83,53.1667 2550.83,53.8333 2537.5,54.5C 2536.83,67.8333 2536.17,67.8333 2535.5,54.5C 2522.17,53.8333 2522.17,53.1667 2535.5,52.5C 2535.5,49.1667 2535.5,45.8333 2535.5,42.5 Z"/></g>
<g><path style="opacity:1" fill="#91d8df" d="M 1150.5,662.5 C 1153.85,662.335 1157.18,662.502 1160.5,663C 1162.9,669.082 1163.07,675.249 1161,681.5C 1157.17,685.128 1152.67,686.295 1147.5,685C 1143.21,681.465 1141.71,676.965 1143,671.5C 1145.33,668.335 1147.83,665.335 1150.5,662.5 Z"/></g>
<g><path style="opacity:1" fill="#bae3eb" d="M 1125.5,673.5 C 1131.65,672.408 1136.82,674.075 1141,678.5C 1143.68,684.532 1142.18,689.365 1136.5,693C 1130.18,694.426 1125.02,692.593 1121,687.5C 1119.7,685.635 1119.37,683.635 1120,681.5C 1122.08,678.935 1123.91,676.268 1125.5,673.5 Z"/></g>
<g><path style="opacity:1" fill="#4e4e4e" d="M 1395.5,674.5 C 1400.89,673.555 1402.56,675.555 1400.5,680.5C 1395.3,681.63 1393.64,679.63 1395.5,674.5 Z"/></g>
<g><path style="opacity:1" fill="#4b4b4b" d="M 1204.5,675.5 C 1211.51,675.334 1218.51,675.5 1225.5,676C 1235.76,678.015 1239.93,684.182 1238,694.5C 1235.71,700.297 1231.55,703.63 1225.5,704.5C 1229.49,713.304 1234.15,721.804 1239.5,730C 1237.42,730.808 1235.42,730.641 1233.5,729.5C 1229.42,721.671 1225.09,714.004 1220.5,706.5C 1216.55,705.509 1212.55,705.176 1208.5,705.5C 1208.5,713.833 1208.5,722.167 1208.5,730.5C 1207.17,730.5 1205.83,730.5 1204.5,730.5C 1204.5,712.167 1204.5,693.833 1204.5,675.5 Z"/></g>
<g><path style="opacity:1" fill="#ececec" d="M 1208.5,679.5 C 1215.26,679.123 1221.92,679.623 1228.5,681C 1232.24,682.8 1233.9,685.8 1233.5,690C 1233.8,694.732 1231.8,698.065 1227.5,700C 1221.26,701.37 1214.93,701.87 1208.5,701.5C 1208.5,694.167 1208.5,686.833 1208.5,679.5 Z"/></g>
<g><path style="opacity:1" fill="#4997b7" d="M 1152.5,700.5 C 1152.67,699.508 1152.34,698.842 1151.5,698.5C 1151.32,688.245 1156.32,684.078 1166.5,686C 1173.62,690.293 1178.29,696.46 1180.5,704.5C 1173.26,706.279 1165.93,706.779 1158.5,706C 1155.98,704.64 1153.98,702.807 1152.5,700.5 Z"/></g>
<g><path style="opacity:1" fill="#4a4a4a" d="M 1277.5,710.5 C 1268.17,710.5 1258.83,710.5 1249.5,710.5C 1249.21,712.735 1249.54,714.735 1250.5,716.5C 1253.54,725.69 1259.87,729.19 1269.5,727C 1271.17,726.167 1272.83,725.333 1274.5,724.5C 1275.79,727.411 1274.79,729.244 1271.5,730C 1254.73,733.894 1246.06,727.228 1245.5,710C 1245.72,696.109 1252.72,689.443 1266.5,690C 1275.75,693.666 1279.42,700.5 1277.5,710.5 Z"/></g>
<g><path style="opacity:1" fill="#4d4d4d" d="M 1296.5,689.5 C 1304.66,688.164 1310.5,691.164 1314,698.5C 1314.5,709.161 1314.67,719.828 1314.5,730.5C 1313.17,730.5 1311.83,730.5 1310.5,730.5C 1310.66,728.801 1310.49,727.134 1310,725.5C 1304.66,730.168 1298.5,732.002 1291.5,731C 1284.59,727.23 1282.75,721.73 1286,714.5C 1292.58,708.391 1300.41,705.391 1309.5,705.5C 1310.17,695.345 1305.5,691.511 1295.5,694C 1293.17,695.167 1290.83,696.333 1288.5,697.5C 1286.03,695.902 1286.03,694.402 1288.5,693C 1291.31,691.907 1293.98,690.74 1296.5,689.5 Z"/></g>
<g><path style="opacity:1" fill="#4f4f4f" d="M 1341.5,689.5 C 1348.08,688.576 1353.08,690.909 1356.5,696.5C 1359.15,693.843 1362.15,691.677 1365.5,690C 1372.74,688.372 1377.91,690.872 1381,697.5C 1381.5,708.495 1381.67,719.495 1381.5,730.5C 1380.17,730.5 1378.83,730.5 1377.5,730.5C 1377.67,720.161 1377.5,709.828 1377,699.5C 1373.96,693.632 1369.46,692.132 1363.5,695C 1361.39,696.141 1359.56,697.641 1358,699.5C 1357.5,709.828 1357.33,720.161 1357.5,730.5C 1355.83,730.5 1354.17,730.5 1352.5,730.5C 1352.67,719.828 1352.5,709.161 1352,698.5C 1348.14,692.883 1343.3,692.049 1337.5,696C 1336,697.5 1334.5,699 1333,700.5C 1332.5,710.494 1332.33,720.494 1332.5,730.5C 1331.17,730.5 1329.83,730.5 1328.5,730.5C 1328.5,717.167 1328.5,703.833 1328.5,690.5C 1329.83,690.5 1331.17,690.5 1332.5,690.5C 1332.21,692.288 1332.55,693.955 1333.5,695.5C 1335.93,693.059 1338.59,691.059 1341.5,689.5 Z"/></g>
<g><path style="opacity:1" fill="#4d4d4d" d="M 1396.5,690.5 C 1397.83,690.5 1399.17,690.5 1400.5,690.5C 1400.5,703.833 1400.5,717.167 1400.5,730.5C 1399.17,730.5 1397.83,730.5 1396.5,730.5C 1396.5,717.167 1396.5,703.833 1396.5,690.5 Z"/></g>
<g><path style="opacity:1" fill="#4d4d4d" d="M 1410.5,691.5 C 1412.03,690.212 1413.7,690.212 1415.5,691.5C 1418.59,696.672 1421.92,701.672 1425.5,706.5C 1428.58,702 1431.42,697.333 1434,692.5C 1435.56,690.485 1437.39,690.152 1439.5,691.5C 1435.7,697.801 1431.7,703.968 1427.5,710C 1431.96,716.414 1436.29,722.914 1440.5,729.5C 1438.83,730.833 1437.17,730.833 1435.5,729.5C 1432.31,723.782 1428.65,718.448 1424.5,713.5C 1420.77,718.567 1417.44,723.901 1414.5,729.5C 1412.83,730.833 1411.17,730.833 1409.5,729.5C 1413.83,722.833 1418.17,716.167 1422.5,709.5C 1418.48,703.435 1414.48,697.435 1410.5,691.5 Z"/></g>
<g><path style="opacity:1" fill="#ececec" d="M 1258.5,693.5 C 1269.3,692.054 1274.3,696.721 1273.5,707.5C 1265.5,707.5 1257.5,707.5 1249.5,707.5C 1250.09,701.252 1253.09,696.585 1258.5,693.5 Z"/></g>
<g><path style="opacity:1" fill="#7abdd5" d="M 1151.5,698.5 C 1152.34,698.842 1152.67,699.508 1152.5,700.5C 1151.77,706.765 1148.77,711.932 1143.5,716C 1140.17,717.331 1137.17,719.165 1134.5,721.5C 1132.1,717.201 1131.1,712.534 1131.5,707.5C 1129.97,699.542 1133.14,694.875 1141,693.5C 1145.07,694.116 1148.24,696.116 1150.5,699.5C 1151.11,699.376 1151.44,699.043 1151.5,698.5 Z"/></g>
<g><path style="opacity:1" fill="#a5a4cc" d="M 1179.5,706.5 C 1183.81,706.548 1187.81,707.715 1191.5,710C 1192.8,710.804 1193.47,711.971 1193.5,713.5C 1191.03,723.78 1185.2,731.447 1176,736.5C 1164.18,728.027 1163.68,718.86 1174.5,709C 1176.31,708.243 1177.98,707.41 1179.5,706.5 Z"/></g>
<g><path style="opacity:1" fill="#eaeaea" d="M 1306.5,709.5 C 1307.5,709.5 1308.5,709.5 1309.5,709.5C 1309.5,713.5 1309.5,717.5 1309.5,721.5C 1305.02,726.729 1299.35,728.562 1292.5,727C 1286.26,719.442 1287.92,714.109 1297.5,711C 1300.43,710.047 1303.43,709.547 1306.5,709.5 Z"/></g>
<g><path style="opacity:1" fill="#a4a4a4" d="M 1306.5,709.5 C 1307.57,708.566 1308.9,708.232 1310.5,708.5C 1310.82,713.032 1310.48,717.366 1309.5,721.5C 1309.5,717.5 1309.5,713.5 1309.5,709.5C 1308.5,709.5 1307.5,709.5 1306.5,709.5 Z"/></g>
<g><path style="opacity:1" fill="#b9b9b9" d="M 1277.5,710.5 C 1268.68,711.493 1259.68,711.827 1250.5,711.5C 1250.5,713.167 1250.5,714.833 1250.5,716.5C 1249.54,714.735 1249.21,712.735 1249.5,710.5C 1258.83,710.5 1268.17,710.5 1277.5,710.5 Z"/></g>
<g><path style="opacity:1" fill="#8e858b" d="M 814.5,781.5 C 813.21,780.942 812.377,779.942 812,778.5C 810.48,783.355 807.48,787.022 803,789.5C 804.104,787.362 805.771,785.362 808,783.5C 809.933,780.107 811.1,776.441 811.5,772.5C 809.473,772.662 807.473,772.495 805.5,772C 807.81,771.503 810.143,771.337 812.5,771.5C 812.576,774.973 813.242,778.306 814.5,781.5 Z"/></g>
<g><path style="opacity:1" fill="#8a8d92" d="M 726.5,776.5 C 726.953,775.542 727.619,774.708 728.5,774C 726.167,773.667 723.833,773.333 721.5,773C 724.833,772.333 728.167,772.333 731.5,773C 730.211,774.802 728.544,775.969 726.5,776.5 Z"/></g>
<g><path style="opacity:1" fill="#86858d" d="M 706.5,770.5 C 707.404,771.209 707.737,772.209 707.5,773.5C 709.857,773.337 712.19,773.503 714.5,774C 712.527,774.495 710.527,774.662 708.5,774.5C 708.665,777.85 708.498,781.183 708,784.5C 706.737,786.797 704.903,787.63 702.5,787C 706.574,785.46 706.907,784.127 703.5,783C 701.602,779.306 702.602,776.806 706.5,775.5C 694.573,774.179 694.573,773.512 706.5,773.5C 706.5,772.5 706.5,771.5 706.5,770.5 Z"/></g>
<g><path style="opacity:1" fill="#8c8990" d="M 787.5,770.5 C 789.048,770.821 789.715,771.821 789.5,773.5C 791.78,773.254 793.78,773.254 795.5,773.5C 792.914,774.48 790.247,774.813 787.5,774.5C 787.5,775.5 787.5,776.5 787.5,777.5C 793.487,777.653 794.987,780.319 792,785.5C 791.667,784.167 791.333,782.833 791,781.5C 789.017,782.766 788.017,784.432 788,786.5C 791.076,787.288 794.242,787.788 797.5,788C 793.909,788.789 790.409,788.622 787,787.5C 786.318,783.82 787.818,781.32 791.5,780C 788.134,778.233 785.301,779.066 783,782.5C 783.768,780.156 784.935,777.823 786.5,775.5C 781.343,774.013 781.676,773.347 787.5,773.5C 787.5,772.5 787.5,771.5 787.5,770.5 Z"/></g>
<g><path style="opacity:1" fill="#8f8c90" d="M 659.5,780.5 C 658.834,783.028 658.168,785.694 657.5,788.5C 656.692,786.577 656.192,784.577 656,782.5C 655.577,783.956 654.744,784.456 653.5,784C 654.929,781.31 655.929,778.477 656.5,775.5C 652.5,775.167 652.5,774.833 656.5,774.5C 657.167,767.833 657.833,767.833 658.5,774.5C 662.079,774.08 665.746,773.914 669.5,774C 668.315,772.647 666.981,771.48 665.5,770.5C 665.833,770.167 666.167,769.833 666.5,769.5C 668.69,771.524 671.023,773.357 673.5,775C 671.527,775.495 669.527,775.662 667.5,775.5C 667.5,776.5 667.5,777.5 667.5,778.5C 669.167,778.5 670.833,778.5 672.5,778.5C 672.5,780.167 672.5,781.833 672.5,783.5C 669.798,784.143 667.465,784.81 665.5,785.5C 663.019,784.28 661.019,782.614 659.5,780.5 Z"/></g>
<g><path style="opacity:1" fill="#838388" d="M 767.5,771.5 C 776.465,770.449 778.132,770.449 772.5,771.5C 772.5,772.5 772.5,773.5 772.5,774.5C 774.167,774.5 775.833,774.5 777.5,774.5C 777.227,776.451 777.893,777.951 779.5,779C 774.31,779.919 771.31,779.752 770.5,778.5C 770.64,776.876 769.973,775.71 768.5,775C 769.448,774.517 770.448,774.351 771.5,774.5C 771.5,773.5 771.5,772.5 771.5,771.5C 770.167,771.5 768.833,771.5 767.5,771.5 Z"/></g>
<g><path style="opacity:1" fill="#838492" d="M 839.5,787.5 C 840.726,783.367 840.726,779.367 839.5,775.5C 837.167,775.5 834.833,775.5 832.5,775.5C 832.829,778.228 832.163,780.562 830.5,782.5C 830.993,780.194 831.326,777.861 831.5,775.5C 822.167,775.167 822.167,774.833 831.5,774.5C 831.833,767.833 832.167,767.833 832.5,774.5C 835.5,774.5 838.5,774.5 841.5,774.5C 842.097,779.294 841.43,783.627 839.5,787.5 Z"/></g>
<g><path style="opacity:1" fill="#eaeeed" d="M 659.5,780.5 C 658.962,778.883 658.629,777.216 658.5,775.5C 660.833,775.5 663.167,775.5 665.5,775.5C 665.5,776.5 665.5,777.5 665.5,778.5C 663.114,778.259 661.114,778.925 659.5,780.5 Z"/></g>
<g><path style="opacity:1" fill="#868489" d="M 681.5,778.5 C 680.448,776.744 678.781,776.077 676.5,776.5C 675.955,780.172 675.622,779.838 675.5,775.5C 678.167,775.5 680.833,775.5 683.5,775.5C 683.5,774.5 683.5,773.5 683.5,772.5C 680.813,772.664 678.146,772.497 675.5,772C 678.763,771.936 681.763,771.102 684.5,769.5C 687.237,771.102 690.237,771.936 693.5,772C 690.854,772.497 688.187,772.664 685.5,772.5C 685.5,773.5 685.5,774.5 685.5,775.5C 688.167,775.5 690.833,775.5 693.5,775.5C 693.378,779.838 693.045,780.172 692.5,776.5C 688.513,776.01 684.846,776.676 681.5,778.5 Z"/></g>
<g><path style="opacity:1" fill="#efe5dc" d="M 772.5,775.5 C 773.833,775.5 775.167,775.5 776.5,775.5C 776.5,776.5 776.5,777.5 776.5,778.5C 775.167,778.5 773.833,778.5 772.5,778.5C 772.5,777.5 772.5,776.5 772.5,775.5 Z"/></g>
<g><path style="opacity:1" fill="#f1eae0" d="M 704.5,777.5 C 707.956,778.536 708.29,780.203 705.5,782.5C 703.296,781.218 702.962,779.551 704.5,777.5 Z"/></g>
<g><path style="opacity:1" fill="#90939b" d="M 726.5,776.5 C 727.609,777.29 728.942,777.79 730.5,778C 726.752,777.78 723.752,779.113 721.5,782C 720.833,782.667 720.167,782.667 719.5,782C 721.441,779.546 723.775,777.713 726.5,776.5 Z"/></g>
<g><path style="opacity:1" fill="#868080" d="M 741.5,770.5 C 742.923,772.545 744.923,773.545 747.5,773.5C 747.833,769.5 748.167,769.5 748.5,773.5C 750.674,773.08 752.674,773.08 754.5,773.5C 755.48,776.086 755.813,778.753 755.5,781.5C 753.167,781.5 750.833,781.5 748.5,781.5C 748.5,782.5 748.5,783.5 748.5,784.5C 760.5,784.833 760.5,785.167 748.5,785.5C 748.167,790.833 747.833,790.833 747.5,785.5C 735.5,785.167 735.5,784.833 747.5,784.5C 747.5,783.5 747.5,782.5 747.5,781.5C 745.167,781.5 742.833,781.5 740.5,781.5C 740.012,778.289 740.679,775.456 742.5,773C 741.748,772.329 741.414,771.496 741.5,770.5 Z"/></g>
<g><path style="opacity:1" fill="#e8eeec" d="M 748.5,774.5 C 750.5,774.5 752.5,774.5 754.5,774.5C 754.5,775.5 754.5,776.5 754.5,777.5C 752.5,777.5 750.5,777.5 748.5,777.5C 748.5,776.5 748.5,775.5 748.5,774.5 Z"/></g>
<g><path style="opacity:1" fill="#f2eee7" d="M 742.5,774.5 C 744.167,774.5 745.833,774.5 747.5,774.5C 747.5,775.5 747.5,776.5 747.5,777.5C 745.833,777.5 744.167,777.5 742.5,777.5C 742.5,776.5 742.5,775.5 742.5,774.5 Z"/></g>
<g><path style="opacity:1" fill="#f2eee7" d="M 742.5,778.5 C 744.288,778.215 745.955,778.548 747.5,779.5C 746.667,779.833 745.833,780.167 745,780.5C 743.624,780.316 742.791,779.649 742.5,778.5 Z"/></g>
<g><path style="opacity:1" fill="#e8eeec" d="M 748.5,778.5 C 750.604,778.201 752.604,778.534 754.5,779.5C 753.5,779.833 752.5,780.167 751.5,780.5C 749.97,780.36 748.97,779.693 748.5,778.5 Z"/></g>
<g><path style="opacity:1" fill="#caab8f" d="M 839.5,775.5 C 840.726,779.367 840.726,783.367 839.5,787.5C 834.194,788.371 833.861,788.371 838.5,787.5C 839.272,783.548 839.605,779.548 839.5,775.5 Z"/></g>
<g><path style="opacity:1" fill="#f0f1ed" d="M 662.5,779.5 C 663.5,779.5 664.5,779.5 665.5,779.5C 665.5,780.5 665.5,781.5 665.5,782.5C 664.5,782.5 663.5,782.5 662.5,782.5C 662.5,781.5 662.5,780.5 662.5,779.5 Z"/></g>
<g><path style="opacity:1" fill="#f2f1ed" d="M 667.5,779.5 C 668.5,779.5 669.5,779.5 670.5,779.5C 670.5,780.5 670.5,781.5 670.5,782.5C 669.5,782.5 668.5,782.5 667.5,782.5C 667.5,781.5 667.5,780.5 667.5,779.5 Z"/></g>
<g><path style="opacity:1" fill="#918e94" d="M 681.5,778.5 C 681.47,779.497 681.97,780.164 683,780.5C 684.657,779.516 686.323,778.516 688,777.5C 687.343,779.494 685.843,780.994 683.5,782C 685.167,782.667 686.833,782.667 688.5,782C 687.304,781.346 687.304,780.846 688.5,780.5C 690.167,781.667 691.833,782.833 693.5,784C 690.918,783.745 688.252,783.578 685.5,783.5C 684.833,790.167 684.167,790.167 683.5,783.5C 680.813,783.664 678.146,783.497 675.5,783C 677.256,782.798 678.922,782.298 680.5,781.5C 679.91,780.201 678.91,779.368 677.5,779C 678.793,778.51 680.127,778.343 681.5,778.5 Z"/></g>
<g><path style="opacity:1" fill="#947b81" d="M 760.5,781.5 C 762.5,781.5 764.5,781.5 766.5,781.5C 766.5,783.833 766.5,786.167 766.5,788.5C 764.533,788.261 762.699,788.594 761,789.5C 760.503,786.854 760.336,784.187 760.5,781.5 Z"/></g>
<g><path style="opacity:1" fill="#e5ecea" d="M 761.5,782.5 C 762.833,782.5 764.167,782.5 765.5,782.5C 765.5,784.167 765.5,785.833 765.5,787.5C 764.167,787.5 762.833,787.5 761.5,787.5C 761.5,785.833 761.5,784.167 761.5,782.5 Z"/></g>
<g><path style="opacity:1" fill="#9396a5" d="M 679.5,784.5 C 681.842,784.775 681.842,785.608 679.5,787C 677.956,788.187 676.289,788.52 674.5,788C 676.584,787.303 678.251,786.136 679.5,784.5 Z"/></g>
<g><path style="opacity:1" fill="#9f9498" d="M 814.5,781.5 C 816.452,784.118 818.785,786.452 821.5,788.5C 821.333,788.833 821.167,789.167 821,789.5C 819,788.167 817,786.833 815,785.5C 814.51,784.207 814.343,782.873 814.5,781.5 Z"/></g>
<g><path style="opacity:1" fill="#8e90a0" d="M 830.5,782.5 C 829.526,785.648 827.526,787.481 824.5,788C 826.416,785.91 828.416,784.077 830.5,782.5 Z"/></g>
<g><path style="opacity:1" fill="#8e9099" d="M 768.5,781.5 C 771.833,781.5 775.167,781.5 778.5,781.5C 778.808,783.924 778.474,786.257 777.5,788.5C 774.833,787.167 772.167,787.167 769.5,788.5C 768.526,786.257 768.192,783.924 768.5,781.5 Z"/></g>
<g><path style="opacity:1" fill="#f1f1ec" d="M 770.5,782.5 C 772.5,782.5 774.5,782.5 776.5,782.5C 776.5,783.833 776.5,785.167 776.5,786.5C 774.5,786.5 772.5,786.5 770.5,786.5C 770.5,785.167 770.5,783.833 770.5,782.5 Z"/></g>
<g><path style="opacity:1" fill="#494949" d="M 1884.5,762.5 C 1894.97,761.963 1898.64,766.629 1895.5,776.5C 1899.5,780.833 1903.5,785.167 1907.5,789.5C 1906.5,790.833 1905.5,790.833 1904.5,789.5C 1901.68,786.182 1898.68,783.015 1895.5,780C 1891.84,780.108 1888.18,780.108 1884.5,780C 1880.06,777.024 1878.56,772.857 1880,767.5C 1881.02,765.313 1882.52,763.646 1884.5,762.5 Z"/></g>
<g><path style="opacity:1" fill="#e6e6e6" d="M 1884.5,764.5 C 1894.82,764.411 1897.15,768.578 1891.5,777C 1883.15,779.152 1879.98,775.985 1882,767.5C 1883.04,766.627 1883.88,765.627 1884.5,764.5 Z"/></g>
<g><path style="opacity:1" fill="#8e8a91" d="M 732.5,779.5 C 735.078,786.765 732.411,789.598 724.5,788C 722.717,786.933 722.217,785.433 723,783.5C 724.388,782.446 725.888,782.28 727.5,783C 726.552,783.483 725.552,783.649 724.5,783.5C 724.723,787.625 726.223,788.291 729,785.5C 730,786.833 731,786.833 732,785.5C 732.495,783.527 732.662,781.527 732.5,779.5 Z"/></g>
<g><path style="opacity:1" fill="#bababa" d="M 2529.5,1304.5 C 2533.16,1303.87 2535.66,1305.21 2537,1308.5C 2537.29,1306.96 2537.96,1305.62 2539,1304.5C 2538.98,1307.57 2538.32,1310.57 2537,1313.5C 2535.95,1314.52 2534.78,1314.68 2533.5,1314C 2534.58,1313.33 2535.25,1312.33 2535.5,1311C 2535.06,1309.18 2534.72,1307.34 2534.5,1305.5C 2533.5,1305.5 2532.5,1305.5 2531.5,1305.5C 2531.8,1307.6 2531.47,1309.6 2530.5,1311.5C 2529.53,1309.26 2529.19,1306.92 2529.5,1304.5 Z"/></g>
<g><path style="opacity:1" fill="#bfbfbf" d="M 2480.5,1301.5 C 2486.55,1300.94 2487.89,1303.11 2484.5,1308C 2485.77,1309.25 2486.11,1310.41 2485.5,1311.5C 2484.5,1310.17 2483.5,1308.83 2482.5,1307.5C 2481.72,1308.73 2481.22,1310.06 2481,1311.5C 2480.5,1308.18 2480.33,1304.85 2480.5,1301.5 Z"/></g>
<g><path style="opacity:1" fill="#c2c2c2" d="M 2502.5,1304.5 C 2504.72,1304.18 2506.56,1304.84 2508,1306.5C 2509.47,1304.68 2511.3,1304.18 2513.5,1305C 2509.9,1305.86 2510.07,1307.03 2514,1308.5C 2514.22,1307.06 2514.72,1305.73 2515.5,1304.5C 2516.83,1306.83 2516.83,1309.17 2515.5,1311.5C 2513.66,1311.24 2511.66,1311.08 2509.5,1311C 2513.37,1310.01 2513.37,1308.85 2509.5,1307.5C 2508.13,1310.73 2505.79,1311.9 2502.5,1311C 2501.23,1308.84 2501.23,1306.67 2502.5,1304.5 Z"/></g>
<g><path style="opacity:1" fill="#bcbcbc" d="M 2495.5,1320.5 C 2497.12,1321.59 2497.95,1323.26 2498,1325.5C 2499.8,1318.91 2501.47,1318.91 2503,1325.5C 2503.47,1323.75 2504.14,1322.09 2505,1320.5C 2505.17,1323.83 2505.01,1327.16 2504.5,1330.5C 2503.5,1330.5 2502.5,1330.5 2501.5,1330.5C 2501.29,1322.7 2500.63,1322.7 2499.5,1330.5C 2498.5,1330.5 2497.5,1330.5 2496.5,1330.5C 2496.38,1327.14 2496.05,1323.81 2495.5,1320.5 Z"/></g>
<g><path style="opacity:1" fill="#848484" d="M 2255.5,1339.5 C 2256.4,1340.21 2256.74,1341.21 2256.5,1342.5C 2261.38,1342.53 2262.71,1344.87 2260.5,1349.5C 2258.98,1341.68 2257.48,1341.68 2256,1349.5C 2255.5,1346.18 2255.33,1342.85 2255.5,1339.5 Z"/></g>
<g><path style="opacity:1" fill="#7a7a7a" d="M 2347.5,1339.5 C 2348.48,1342.29 2348.81,1345.29 2348.5,1348.5C 2353.5,1349 2353.17,1349.34 2347.5,1349.5C 2347.5,1346.17 2347.5,1342.83 2347.5,1339.5 Z"/></g>
<g><path style="opacity:1" fill="#767676" d="M 2399.5,1339.5 C 2400.4,1340.21 2400.74,1341.21 2400.5,1342.5C 2405.33,1342.39 2406.66,1344.55 2404.5,1349C 2402.87,1349.49 2401.2,1349.66 2399.5,1349.5C 2399.5,1346.17 2399.5,1342.83 2399.5,1339.5 Z"/></g>
<g><path style="opacity:1" fill="#bdbdbd" d="M 2455.5,1339.5 C 2457.05,1339.82 2457.71,1340.82 2457.5,1342.5C 2460.49,1342.15 2461.82,1343.49 2461.5,1346.5C 2461.17,1347.5 2460.83,1348.5 2460.5,1349.5C 2459.17,1341.5 2457.83,1341.5 2456.5,1349.5C 2455.51,1346.23 2455.18,1342.9 2455.5,1339.5 Z"/></g>
<g><path style="opacity:1" fill="#c3c3c3" d="M 2498.5,1339.5 C 2500.39,1341.99 2501.05,1344.99 2500.5,1348.5C 2501.83,1348.5 2503.17,1348.5 2504.5,1348.5C 2504.2,1346.4 2504.53,1344.4 2505.5,1342.5C 2506.47,1344.74 2506.81,1347.08 2506.5,1349.5C 2503.83,1349.5 2501.17,1349.5 2498.5,1349.5C 2498.5,1346.17 2498.5,1342.83 2498.5,1339.5 Z"/></g>
<g><path style="opacity:1" fill="#cfcfcf" d="M 2280.5,1340.5 C 2281.83,1343.17 2281.83,1345.83 2280.5,1348.5C 2278.28,1348.44 2277.28,1347.27 2277.5,1345C 2277.41,1342.65 2278.41,1341.15 2280.5,1340.5 Z"/></g>
<g><path style="opacity:1" fill="#8e8e8e" d="M 2283.5,1339.5 C 2289.48,1340.57 2290.15,1343.4 2285.5,1348C 2286.5,1348.33 2287.5,1348.67 2288.5,1349C 2286.74,1349.8 2285.07,1349.63 2283.5,1348.5C 2286.33,1346.34 2287,1343.68 2285.5,1340.5C 2283.11,1341.99 2282.45,1341.66 2283.5,1339.5 Z"/></g>
<g><path style="opacity:1" fill="#989898" d="M 2290.5,1340.5 C 2291.21,1339.6 2292.21,1339.26 2293.5,1339.5C 2293.22,1342.78 2293.55,1345.94 2294.5,1349C 2293.17,1349.67 2291.83,1349.67 2290.5,1349C 2291.82,1346.06 2291.82,1343.23 2290.5,1340.5 Z"/></g>
<g><path style="opacity:1" fill="#848484" d="M 2280.5,1340.5 C 2278.41,1341.15 2277.41,1342.65 2277.5,1345C 2277.28,1347.27 2278.28,1348.44 2280.5,1348.5C 2277.18,1349.86 2275.85,1348.53 2276.5,1344.5C 2275.85,1340.47 2277.18,1339.14 2280.5,1340.5 Z"/></g>
<g><path style="opacity:1" fill="#9a9a9a" d="M 2353.5,1342.5 C 2354.75,1342.58 2355.58,1343.24 2356,1344.5C 2357.47,1342.68 2359.3,1342.18 2361.5,1343C 2356.17,1345 2356.17,1347 2361.5,1349C 2359.3,1349.82 2357.47,1349.32 2356,1347.5C 2355.69,1348.31 2355.19,1348.97 2354.5,1349.5C 2353.53,1347.26 2353.19,1344.92 2353.5,1342.5 Z"/></g>
<g><path style="opacity:1" fill="#bbbbbb" d="M 2415.5,1342.5 C 2418.83,1342.5 2422.17,1342.5 2425.5,1342.5C 2425.66,1344.86 2425.5,1347.19 2425,1349.5C 2424.5,1347.53 2424.34,1345.53 2424.5,1343.5C 2423.5,1343.5 2422.5,1343.5 2421.5,1343.5C 2421.11,1351.4 2420.11,1351.4 2418.5,1343.5C 2416.63,1351.3 2415.63,1350.97 2415.5,1342.5 Z"/></g>
<g><path style="opacity:1" fill="#bcbcbc" d="M 2474.5,1342.5 C 2477.52,1342.34 2480.52,1342.5 2483.5,1343C 2484.77,1345.14 2484.77,1347.31 2483.5,1349.5C 2482.17,1341.5 2480.83,1341.5 2479.5,1349.5C 2478.17,1341.5 2476.83,1341.5 2475.5,1349.5C 2474.53,1347.26 2474.19,1344.92 2474.5,1342.5 Z"/></g>
<g><path style="opacity:1" fill="#7f7f7f" d="M 2220.5,1342.5 C 2221.87,1342.34 2223.21,1342.51 2224.5,1343C 2219.17,1345 2219.17,1347 2224.5,1349C 2219.57,1349.43 2218.24,1347.26 2220.5,1342.5 Z"/></g>
<g><path style="opacity:1" fill="#8d8d8d" d="M 2262.5,1340.5 C 2265.37,1341.54 2266.04,1343.37 2264.5,1346C 2264.75,1347.33 2265.42,1348.33 2266.5,1349C 2265.22,1349.68 2264.05,1349.52 2263,1348.5C 2262.5,1345.85 2262.34,1343.19 2262.5,1340.5 Z"/></g>
<g><path style="opacity:1" fill="#868686" d="M 2333.5,1342.5 C 2339.24,1341.82 2340.9,1344.15 2338.5,1349.5C 2336.98,1341.68 2335.48,1341.68 2334,1349.5C 2333.5,1347.19 2333.34,1344.86 2333.5,1342.5 Z"/></g>
<g><path style="opacity:1" fill="#6f6f6f" d="M 2369.5,1342.5 C 2371.17,1342.5 2372.83,1342.5 2374.5,1342.5C 2374.66,1344.86 2374.5,1347.19 2374,1349.5C 2373.5,1347.53 2373.34,1345.53 2373.5,1343.5C 2372.5,1343.5 2371.5,1343.5 2370.5,1343.5C 2370.66,1345.53 2370.5,1347.53 2370,1349.5C 2369.5,1347.19 2369.34,1344.86 2369.5,1342.5 Z"/></g>
<g><path style="opacity:1" fill="#dedede" d="M 2400.5,1343.5 C 2404.16,1343.35 2405.16,1344.85 2403.5,1348C 2402.55,1348.48 2401.55,1348.65 2400.5,1348.5C 2400.5,1346.83 2400.5,1345.17 2400.5,1343.5 Z"/></g>
<g><path style="opacity:1" fill="#747474" d="M 2227.5,1342.5 C 2232.52,1341.91 2234.19,1343.91 2232.5,1348.5C 2231.31,1349.43 2229.98,1349.76 2228.5,1349.5C 2227.22,1349.64 2226.89,1347.3 2227.5,1342.5 Z"/></g>
<g><path style="opacity:1" fill="#e8e8e8" d="M 2228.5,1343.5 C 2229.5,1343.5 2230.5,1343.5 2231.5,1343.5C 2231.5,1345.17 2231.5,1346.83 2231.5,1348.5C 2230.5,1348.5 2229.5,1348.5 2228.5,1348.5C 2228.5,1346.83 2228.5,1345.17 2228.5,1343.5 Z"/></g>
<g><path style="opacity:1" fill="#bbbbbb" d="M 2486.5,1342.5 C 2489.95,1341.76 2491.62,1343.09 2491.5,1346.5C 2486.2,1347.03 2486.2,1347.87 2491.5,1349C 2485.74,1350.14 2484.07,1347.97 2486.5,1342.5 Z"/></g>
<g><path style="opacity:1" fill="#bebebe" d="M 2528.5,1342.5 C 2532.89,1342.46 2533.23,1342.96 2529.5,1344C 2531.89,1347.05 2533.56,1346.88 2534.5,1343.5C 2537.83,1341.75 2539.5,1342.75 2539.5,1346.5C 2534.2,1347.03 2534.2,1347.87 2539.5,1349C 2535.79,1348.62 2532.12,1348.62 2528.5,1349C 2532.25,1348.24 2532.42,1347.07 2529,1345.5C 2528.52,1344.55 2528.35,1343.55 2528.5,1342.5 Z"/></g>
<g><path style="opacity:1" fill="#727272" d="M 2241.5,1342.5 C 2242.55,1342.35 2243.55,1342.52 2244.5,1343C 2242.9,1344.79 2242.07,1346.95 2242,1349.5C 2241.5,1347.19 2241.34,1344.86 2241.5,1342.5 Z"/></g>
<g><path style="opacity:1" fill="#727272" d="M 2329.5,1342.5 C 2330.55,1342.35 2331.55,1342.52 2332.5,1343C 2330.9,1344.79 2330.07,1346.95 2330,1349.5C 2329.5,1347.19 2329.34,1344.86 2329.5,1342.5 Z"/></g>
<g><path style="opacity:1" fill="#8e8e8e" d="M 2363.5,1342.5 C 2364.83,1342.5 2366.17,1342.5 2367.5,1342.5C 2367.5,1343.83 2367.5,1345.17 2367.5,1346.5C 2365.55,1346.23 2364.05,1346.89 2363,1348.5C 2362.32,1346.4 2362.49,1344.4 2363.5,1342.5 Z"/></g>
<g><path style="opacity:1" fill="#7a7a7a" d="M 2212.5,1340.5 C 2212.42,1343.01 2212.59,1345.68 2213,1348.5C 2211.19,1345.95 2211.02,1343.29 2212.5,1340.5 Z"/></g>
<g><path style="opacity:1" fill="#7e7e7e" d="M 2234.5,1342.5 C 2235.56,1343.6 2236.39,1344.93 2237,1346.5C 2237.92,1345.24 2238.76,1343.91 2239.5,1342.5C 2239.5,1345.4 2238.66,1348.4 2237,1351.5C 2236.15,1348.48 2235.32,1345.48 2234.5,1342.5 Z"/></g>
<g><path style="opacity:1" fill="#808080" d="M 2298.5,1339.5 C 2300.31,1341.39 2301.48,1343.72 2302,1346.5C 2302.67,1344.5 2303.33,1342.5 2304,1340.5C 2304.65,1339.3 2305.15,1339.3 2305.5,1340.5C 2302.61,1352.35 2300.28,1352.02 2298.5,1339.5 Z"/></g>
<g><path style="opacity:1" fill="#7e7e7e" d="M 2406.5,1342.5 C 2407.56,1343.6 2408.39,1344.93 2409,1346.5C 2409.92,1345.24 2410.76,1343.91 2411.5,1342.5C 2411.5,1345.4 2410.66,1348.4 2409,1351.5C 2408.15,1348.48 2407.32,1345.48 2406.5,1342.5 Z"/></g>
<g><path style="opacity:1" fill="#828282" d="M 2393.5,1339.5 C 2394.48,1342.62 2394.81,1345.96 2394.5,1349.5C 2391.08,1349.93 2388.25,1348.93 2386,1346.5C 2384.67,1346.75 2383.67,1347.42 2383,1348.5C 2382.09,1347.35 2381.25,1347.51 2380.5,1349C 2376,1349.66 2375.67,1349.16 2379.5,1347.5C 2377.24,1346.58 2376.24,1344.91 2376.5,1342.5C 2380.89,1342.46 2381.23,1342.96 2377.5,1344C 2378.58,1344.96 2379.75,1345.79 2381,1346.5C 2382.58,1342.36 2384.91,1341.69 2388,1344.5C 2389.44,1342.84 2391.28,1342.18 2393.5,1342.5C 2393.5,1341.5 2393.5,1340.5 2393.5,1339.5 Z"/></g>
<g><path style="opacity:1" fill="#e1e1e1" d="M 2390.5,1343.5 C 2391.5,1343.5 2392.5,1343.5 2393.5,1343.5C 2393.5,1345.17 2393.5,1346.83 2393.5,1348.5C 2389.72,1348.47 2388.72,1346.81 2390.5,1343.5 Z"/></g>
<g><path style="opacity:1" fill="#c9c9c9" d="M 2509.5,1342.5 C 2515.31,1343 2520.98,1343 2526.5,1342.5C 2526.66,1344.86 2526.5,1347.19 2526,1349.5C 2525.5,1347.53 2525.34,1345.53 2525.5,1343.5C 2524.5,1343.5 2523.5,1343.5 2522.5,1343.5C 2522.8,1345.6 2522.47,1347.6 2521.5,1349.5C 2520.61,1348.68 2520.28,1347.68 2520.5,1346.5C 2514.74,1346.71 2514.41,1347.54 2519.5,1349C 2516.17,1349.67 2512.83,1349.67 2509.5,1349C 2506.94,1346.84 2506.94,1344.68 2509.5,1342.5 Z"/></g>
<g><path style="opacity:1" fill="#959595" d="M 2249.5,1342.5 C 2254.13,1341.56 2255.3,1342.89 2253,1346.5C 2249.64,1347.74 2249.81,1348.58 2253.5,1349C 2248.17,1350 2248.17,1351 2253.5,1352C 2251.87,1352.49 2250.2,1352.66 2248.5,1352.5C 2249.16,1349.01 2249.49,1345.68 2249.5,1342.5 Z"/></g>
<g><path style="opacity:1" fill="#858585" d="M 2270.5,1340.5 C 2271.57,1339.57 2272.9,1339.23 2274.5,1339.5C 2274.85,1342.6 2274.18,1345.44 2272.5,1348C 2273.5,1348.33 2274.5,1348.67 2275.5,1349C 2273.5,1349.67 2271.5,1349.67 2269.5,1349C 2272.32,1346.86 2273.65,1344.03 2273.5,1340.5C 2272.5,1340.5 2271.5,1340.5 2270.5,1340.5 Z"/></g>
<g><path style="opacity:1" fill="#8c8c8c" d="M 2307.5,1339.5 C 2309.29,1339.21 2310.95,1339.55 2312.5,1340.5C 2311.15,1340.45 2309.65,1340.78 2308,1341.5C 2307.33,1343.5 2307.33,1345.5 2308,1347.5C 2309.65,1348.22 2311.15,1348.55 2312.5,1348.5C 2310.05,1349.91 2307.88,1349.58 2306,1347.5C 2305.28,1344.59 2305.78,1341.93 2307.5,1339.5 Z"/></g>
<g><path style="opacity:1" fill="#737373" d="M 2314.5,1339.5 C 2315.4,1340.21 2315.74,1341.21 2315.5,1342.5C 2320.25,1342.16 2321.59,1344.16 2319.5,1348.5C 2317.95,1349.45 2316.29,1349.79 2314.5,1349.5C 2314.5,1346.17 2314.5,1342.83 2314.5,1339.5 Z"/></g>
<g><path style="opacity:1" fill="#e8e8e8" d="M 2315.5,1343.5 C 2316.5,1343.5 2317.5,1343.5 2318.5,1343.5C 2318.5,1345.17 2318.5,1346.83 2318.5,1348.5C 2317.5,1348.5 2316.5,1348.5 2315.5,1348.5C 2315.5,1346.83 2315.5,1345.17 2315.5,1343.5 Z"/></g>
<g><path style="opacity:1" fill="#7a7a7a" d="M 2322.5,1342.5 C 2327.33,1342.39 2328.66,1344.55 2326.5,1349C 2321.57,1349.43 2320.24,1347.26 2322.5,1342.5 Z"/></g>
<g><path style="opacity:1" fill="#e8e8e8" d="M 2323.5,1343.5 C 2326.96,1344.54 2327.29,1346.2 2324.5,1348.5C 2322.3,1347.22 2321.96,1345.55 2323.5,1343.5 Z"/></g>
</svg>
