<svg id="レイヤー_1" data-name="レイヤー 1" xmlns="http://www.w3.org/2000/svg" xmlns:xlink="http://www.w3.org/1999/xlink" viewBox="0 0 2200.8 512.01"><defs><style>.cls-1{fill:none;}.cls-2{fill:#ecf0ec;}.cls-3{clip-path:url(#clip-path);}.cls-4{fill:#4088a5;}.cls-5{fill:#6faec3;}.cls-6{fill:#b1d8e0;}.cls-7{fill:#89c9ce;}.cls-8{fill:#9c9bbf;}</style><clipPath id="clip-path"><circle class="cls-1" cx="256" cy="256.01" r="256"/></clipPath></defs><circle class="cls-2" cx="258.3" cy="255.52" r="255.52"/><g class="cls-3"><path class="cls-4" d="M302.26,144.69a68.4,68.4,0,0,0-1.65,136.79h1.65L348.18,162.4A68.15,68.15,0,0,0,302.26,144.69Z"/><path class="cls-4" d="M417.09,256.05l-4.31,10.44a6.11,6.11,0,0,0,4.31-10.44Z"/><path class="cls-4" d="M417.09,256.05c-24.22-44.19-43.31-71-68.84-93.55h0l-.07-.06h0l-45.92,119c39,0,61.09-2.64,110.52-15Z"/><path class="cls-5" d="M233.86,263.78a63.75,63.75,0,0,0-127.5,0h0l111,42.8A63.53,63.53,0,0,0,233.86,263.78Z"/><path class="cls-5" d="M130.1,370.82l-9.73-4a5.7,5.7,0,0,0,9.73,4Z"/><path class="cls-5" d="M130.1,370.82c41.19-22.57,66.14-40.38,87.2-64.17h0l.06-.07h0l-111-42.8c0,36.39,2.47,57,14,103l9.73,4Z"/><path class="cls-6" d="M117.71,198.35a63.75,63.75,0,0,0-9.16-127.17c-.65,0-1.3.1-2,.17l-33,114.31A63.5,63.5,0,0,0,117.71,198.35Z"/><path class="cls-6" d="M2,104.32l3.16-10a5.7,5.7,0,0,0-3.16,10Z"/><path class="cls-6" d="M2,104.32c26.08,39.06,46,62.37,71.53,81.27h0l.07,0h0l33-114.31C70.35,74.51,50.09,78.76,5.2,94.27Z"/><path class="cls-7" d="M176.17,89.94A65.86,65.86,0,0,0,307.39,78.46h0l-118.09-34A65.65,65.65,0,0,0,176.17,89.94Z"/><path class="cls-7" d="M273.31-29.55C233-2.62,208.88,18,189.31,44.33h0v.08h0L307.39,78.46c-3.28-37.41-7.67-58.41-23.7-104.75Z"/><circle class="cls-8" cx="429.95" cy="381.81" r="97.89"/></g><path d="M692.7,77.46h98.87c70.34,0,115.1,26.07,115.1,92,0,63.45-44.76,96.9-115.1,96.9H710.9V434.56H692.7ZM785.17,250.6c65.42,0,101.82-26.07,101.82-81.16,0-55.58-36.4-75.75-101.82-75.75H710.9V250.6Zm1.48,10.33,20.66-2,104.77,175.6H890.93Z"/><path d="M951.92,305.69c0-84.6,54.11-136.74,111.66-136.74,60,0,97.88,42.79,97.88,119.52a116.56,116.56,0,0,1-1,17.71H970.61c0,68.37,39.85,118.55,100.84,118.55,29.51,0,51.65-9.35,71.32-23.61l7.87,15.24c-19.67,11.81-41.81,24.6-80.18,24.6C1005,441,951.92,390.29,951.92,305.69ZM1144.25,290c0-70.34-32-104.77-80.67-104.77-46.24,0-87.56,39.35-93,104.77Z"/><path d="M1205.73,370.62c0-57.55,52.63-84.61,169.21-97.89,1.48-41.81-9.35-87.55-63-87.55-36.89,0-67.88,18.2-84.6,31.48l-8.86-14.27c16.23-11.8,52.14-33.44,94.44-33.44,61,0,79.69,45.25,79.69,97.88V434.56h-14.76l-2.46-34.43H1374c-26.57,21.64-59,40.83-93.46,40.83C1240.17,441,1205.73,419.81,1205.73,370.62ZM1374.94,381V288c-112.64,12.3-151,38.37-151,82.15,0,39.84,26.56,54.6,58,54.6C1313,424.73,1341,410,1374.94,381Z"/><path d="M1488.56,175.34h14.76l3,41.32h1c23.61-27,53.62-47.71,82.15-47.71,42.3,0,63,21.64,71.32,54.1,30.5-33.44,59.52-54.1,89-54.1,50.67,0,76.74,32,76.74,98.87V434.56h-17.22V270.27c0-57-19.68-85.09-61.49-85.09-25.57,0-51.15,17.21-81.65,51.15V434.56h-17.21V270.27c0-57-19.19-85.09-61-85.09-25.08,0-52.14,17.21-81.65,51.15V434.56h-17.71Z"/><path d="M1917.48,89.75c0-10.82,7.38-18.69,17.71-18.69,9.83,0,17.7,7.87,17.7,18.69,0,12.79-7.87,20.17-17.7,20.17C1924.86,109.92,1917.48,102.54,1917.48,89.75Zm8.36,85.59h17.71V434.56h-17.71Z"/><path d="M2091.11,299.3l-81.16-124h19.67l43.78,68.86c8.86,14.27,18.69,28,28.53,42.8h2c9.35-14.76,17.71-28.53,27.54-42.8l42.8-68.86h18.69l-81.16,124.94,89,134.28h-20.17l-48.2-74.27c-9.35-16.23-20.17-32.46-31-47.71H2099c-10.82,15.25-20.66,31.48-31,47.71l-46.73,74.27h-19.18Z"/></svg>