<svg data-name="レイヤー 1" xmlns="http://www.w3.org/2000/svg" viewBox="0 0 512 512"><defs><linearGradient id="a" x1="729.02" y1="1227.5" x2="942.02" y2="1227.5" gradientTransform="translate(-600 -977.83)" gradientUnits="userSpaceOnUse"><stop offset="0" stop-color="#fff"/><stop offset=".41" stop-color="#00dbff"/><stop offset="1" stop-color="#6cdbff"/></linearGradient></defs><path d="M0 0h512v512H0z"/><path d="M335.69 294.1c-9.65 10.81-20.13 16.64-33.78 16.64-28.62 0-46.59-24-46.59-61.41s18.3-60.73 47.26-60.73c12.31 0 22.13 5.65 29.45 13.81l6.32-7.49a48 48 0 00-35.94-16.64c-18 .16-33.11 7.49-43.43 20.63L129 247v10l125.13 36.94c10.15 17.31 26.79 27.12 47.1 27.12 17.63 0 30.28-7.32 40.77-19.63zM139 252l112-40.27a89.87 89.87 0 00-7.49 37.94 94.57 94.57 0 005.33 32.61z" fill="url(#a)"/></svg>