<svg version="1.1" id="レイヤー_1" xmlns="http://www.w3.org/2000/svg" x="0" y="0" viewBox="0 0 632.4 87.5" xml:space="preserve"><style>.st0{opacity:.5}.st0,.st1{fill:#fff}</style><path class="st0" d="M230.4 87.5L202.5 5.7h9.3l24.8 74.2L261 5.7h9.3l-27.7 81.8h-12.2zM305.9 5.5h28.2v7.3h-26.8c-9.4 0-15.7.8-15.7 12v43.5c0 11.7 5.9 11.8 15.7 11.8h26.8v7.4h-28.2c-12.8 0-22.9-3.5-22.9-18V23.7c0-14.6 10.1-18.2 22.9-18.2zM434.9 5.5c13.4 0 20.6 8.2 20.6 21.4 0 7.3-2.9 14.9-9.2 18.5 7.6 2.5 10.5 11 10.5 18.7 0 14.8-4.5 23.5-20.5 23.5h-34.5v-82l33.1-.1zm11.9 21.6c0-8.9-3.9-14.3-13-14.3h-23.4v29.5h25.1c7.5 0 11.3-8.7 11.3-15.2zm1.3 36.9c0-7.3-3.4-14.5-11.5-14.5h-26.2v30.7h25.9c10.5 0 11.8-7.2 11.8-16.2zM521.1 42.2v27.4c0 11.9-7.5 17.9-22 17.9h-5.6c-14.5 0-21.8-6-21.8-17.9V42.2c0-12 7.3-18 21.8-18h5.6c14.4 0 22 6.1 22 18zm-21.8-10.7h-5.9c-7.8 0-13.1 1-13.1 11v26.1c0 10.6 6.3 11.7 13.2 11.7h5.7c7.8 0 13.3-1 13.3-10.8v-27c0-10-5.4-11-13.2-11zM549.3 34.3c1.3-1.8 2.8-3.5 4.4-4.9 3.4-2.9 8.2-5.2 15.2-5.2h1.7v7.3H569c-6 0-9.6 1.3-12.7 3.9-1.7 1.5-3.2 3.1-4.6 4.8-1.6 1.9-3.4 4.2-5.5 6.8v40.6h-8.6V24.2h7.2l1 15 3.5-4.9zM623.8 42.2c0-7.4-3.9-11.7-11-11.7-8.1 0-17.8 6.1-21.6 11.8v45.2h-8.5v-62h7.1l.7 9.5c6.9-7.3 16.4-11.3 24.7-11.3 10.6 0 17.3 7 17.3 18.5v45.4h-8.6l-.1-45.4z"/><path class="st1" d="M227 83.4L199.1 1.6h9.3l24.8 74.2 24.4-74.2h9.3l-27.7 81.8H227zM302.5 1.4h28.2v7.3h-26.8c-9.5 0-15.7.8-15.7 12v43.5c0 11.7 5.9 11.8 15.7 11.8h26.8v7.4h-28.2c-12.8 0-22.9-3.5-22.9-18V19.5c0-14.6 10.1-18.1 22.9-18.1zM431.5 1.4c13.4 0 20.6 8.2 20.6 21.4 0 7.3-2.9 14.9-9.2 18.5 7.6 2.5 10.5 10.9 10.5 18.7 0 14.8-4.5 23.5-20.5 23.5h-34.5v-82l33.1-.1zm11.9 21.5c0-8.9-3.9-14.3-13-14.3H407v29.5h25.1c7.5.1 11.3-8.6 11.3-15.2zm1.3 37c0-7.3-3.4-14.5-11.5-14.5H407v30.7h25.9c10.5 0 11.8-7.2 11.8-16.2zM517.7 38.1v27.4c0 11.9-7.5 17.9-22 17.9h-5.6c-14.5 0-21.8-6-21.8-17.9V38.1c0-12 7.3-18 21.8-18h5.6c14.4-.1 22 6.1 22 18zm-21.8-10.8H490c-7.8 0-13.1 1-13.1 11v26c0 10.6 6.3 11.7 13.2 11.7h5.7c7.8 0 13.3-1 13.3-10.8V38.3c0-10-5.3-11-13.2-11zM545.9 30.2c1.3-1.8 2.8-3.5 4.4-4.9 3.4-2.9 8.2-5.2 15.2-5.2h1.7v7.3h-1.7c-6 0-9.6 1.3-12.7 3.9-1.7 1.5-3.2 3.1-4.6 4.8-1.6 1.9-3.4 4.2-5.5 6.8v40.5h-8.6V20h7.2l1 15 3.6-4.8zM620.4 38.1c0-7.4-3.9-11.7-11.1-11.7-8.1 0-17.8 6.1-21.6 11.8v45.2h-8.5v-62h7.1l.6 9.4c6.9-7.3 16.4-11.3 24.7-11.3 10.6 0 17.3 7 17.3 18.5v45.4h-8.6V38.1z"/><linearGradient id="SVGID_1_" gradientUnits="userSpaceOnUse" x1="600" y1="-508.645" x2="728.03" y2="-508.645" gradientTransform="matrix(1 0 0 -1 -600 -465.83)"><stop offset="0" stop-color="#fff"/><stop offset=".41" stop-color="#00dbff"/><stop offset="1" stop-color="#6cdbff"/></linearGradient><path d="M124.2 69.5c-5.8 6.5-12.1 10-20.3 10-17.2 0-28-14.4-28-36.9s11-36.5 28.4-36.5c7.4 0 13.3 3.4 17.7 8.3l3.8-4.5c-5.4-6.3-13.3-9.9-21.6-10-10.8.1-19.9 4.5-26.1 12.4L0 41.2v6l75.2 22.2c6.1 10.4 16.1 16.3 28.3 16.3 10.6 0 18.2-4.4 24.5-11.8l-3.8-4.4zM6 44.2L73.3 20c-3.1 7.2-4.7 14.9-4.5 22.8-.1 6.7 1 13.3 3.2 19.6L6 44.2z" fill="url(#SVGID_1_)"/></svg>