<svg id="レイヤー_1" data-name="レイヤー 1" xmlns="http://www.w3.org/2000/svg" xmlns:xlink="http://www.w3.org/1999/xlink" viewBox="0 0 671.36 89.87"><defs><linearGradient id="名称未設定グラデーション" x1="600" y1="1024.06" x2="728" y2="1024.06" gradientTransform="translate(-600 -977.83)" gradientUnits="userSpaceOnUse"><stop offset="0" stop-color="#fff"/><stop offset="0.41" stop-color="#00dbff"/><stop offset="1" stop-color="#6cdbff"/></linearGradient></defs><path d="M124.2,72.93c-5.8,6.5-12.1,10-20.3,10-17.2,0-28-14.4-28-36.9s11-36.5,28.4-36.5c7.4,0,13.3,3.4,17.7,8.3l3.8-4.5a28.87,28.87,0,0,0-21.6-10c-10.8.1-19.9,4.5-26.1,12.4L0,44.63v6l75.2,22.2c6.1,10.4,16.1,16.3,28.3,16.3,10.6,0,18.2-4.4,24.5-11.8ZM6,47.63l67.3-24.2a54,54,0,0,0-4.5,22.8A56.75,56.75,0,0,0,72,65.83Z" style="fill:url(#名称未設定グラデーション)"/><path d="M230.4,85.6,202.58,4.07h9.31L236.61,78,260.89,4.07h9.31L242.6,85.6Z"/><path d="M305.62,3.85h28.14v7.28H307c-9.41,0-15.62.75-15.62,12V66.44c0,11.67,5.89,11.77,15.62,11.77h26.75V85.6H305.62c-12.73,0-22.79-3.53-22.79-18V21.93C282.83,7.38,292.89,3.85,305.62,3.85Z"/><path d="M450.18,85.6h-49V3.85h8.46V78.32h40.55Z"/><path d="M468.58,11.77h-8.34V0h8.34Zm0,73.83h-8.34V22.47h8.34Z"/><path d="M528.18,40.44c0-7.38-3.85-11.66-11-11.66-8,0-17.76,6.1-21.51,11.77V85.6H487.2V23.75h7.06l.64,9.42c6.85-7.28,16.37-11.24,24.61-11.24,10.6,0,17.23,7,17.23,18.41V85.6h-8.56Z"/><path d="M580,85.6H574.4c-14.44,0-21.72-6-21.72-17.87V22.47h8.56V66.66c0,10.59,6.32,11.66,13.16,11.66h5.67c7.81,0,13.27-1,13.27-10.81v-45h8.56V67.73C601.9,79.6,594.41,85.6,580,85.6Z"/><path d="M640.31,58.85,623,85.6H612.71L635.5,53.18,612.82,22H623.2l17.22,25.89L657.33,22h10.38L645.24,53.28,668,85.6H657.65Z"/><g style="opacity:0.5"><path d="M233.73,89.87,205.92,8.34h9.3l24.72,73.94L264.23,8.34h9.31L245.93,89.87Z"/><path d="M309,8.13h28.14V15.4H310.35c-9.42,0-15.63.75-15.63,12V70.72c0,11.66,5.89,11.77,15.63,11.77h26.74v7.38H309c-12.73,0-22.79-3.53-22.79-18V26.21C286.16,11.66,296.22,8.13,309,8.13Z"/><path d="M453.51,89.87h-49V8.13H413V82.6h40.55Z"/><path d="M471.92,16.05h-8.35V4.28h8.35Zm0,73.82h-8.35V26.75h8.35Z"/><path d="M531.51,44.72c0-7.38-3.85-11.66-11-11.66-8,0-17.76,6.1-21.5,11.77v45h-8.45V28h7.06l.64,9.42c6.85-7.28,16.37-11.24,24.61-11.24,10.59,0,17.22,7,17.22,18.4V89.87h-8.56Z"/><path d="M583.3,89.87h-5.56c-14.45,0-21.72-6-21.72-17.87V26.75h8.56V70.94c0,10.59,6.31,11.66,13.16,11.66h5.67c7.81,0,13.27-1,13.27-10.81v-45h8.56V72C605.24,83.88,597.75,89.87,583.3,89.87Z"/><path d="M643.65,63.12,626.32,89.87H616l22.79-32.42L616.15,26.32h10.38l17.23,25.89,16.9-25.89H671L648.57,57.56l22.79,32.31H661Z"/></g></svg>