<svg id="レイヤー_1" data-name="レイヤー 1" xmlns="http://www.w3.org/2000/svg" xmlns:xlink="http://www.w3.org/1999/xlink" viewBox="0 0 960 540"><defs><linearGradient id="名称未設定グラデーション_2" x1="858.73" y1="1247.4" x2="944.13" y2="1247.4" gradientTransform="translate(-600 -977.83)" gradientUnits="userSpaceOnUse"><stop offset="0" stop-color="#fff"/><stop offset="0.41" stop-color="#00dbff"/><stop offset="1" stop-color="#6cdbff"/></linearGradient></defs><rect width="960" height="540" style="fill:#163469"/><path d="M413.45,299.39l-18.62-54.58H401l16.55,49.51,16.27-49.51h6.21l-18.48,54.58Z" transform="translate(0 -0.27)" style="fill:#fff;isolation:isolate;opacity:0.5"/><path d="M463.82,244.68h18.81v4.87H464.75c-6.27,0-10.47.53-10.47,8v29c0,7.81,3.94,7.87,10.47,7.87h17.88v4.94H463.82c-8.54,0-15.28-2.34-15.28-12V256.82C448.54,247.08,455.28,244.68,463.82,244.68Z" transform="translate(0 -0.27)" style="fill:#fff;isolation:isolate;opacity:0.5"/><path d="M549.89,244.68c8.94,0,13.74,5.47,13.74,14.28,0,4.87-1.94,9.94-6.14,12.34,5.07,1.67,7,7.34,7,12.48,0,9.87-3,15.68-13.68,15.68h-23V244.75Zm7.93,14.41c0-5.94-2.6-9.54-8.67-9.54H533.54v19.68h16.75C555.29,269.23,557.82,263.43,557.82,259.09Zm.87,24.62c0-4.87-2.27-9.67-7.67-9.67H533.54v20.48h17.28c7,0,7.87-4.81,7.87-10.81Z" transform="translate(0 -0.27)" style="fill:#fff;isolation:isolate;opacity:0.5"/><path d="M607.4,269.17v18.28c0,7.94-5,11.94-14.68,11.94H589c-9.67,0-14.54-4-14.54-11.94V269.17c0-8,4.87-12,14.54-12h3.74C602.33,257.16,607.4,261.23,607.4,269.17ZM592.85,262h-3.94c-5.2,0-8.73.66-8.73,7.34v17.41c0,7.07,4.2,7.81,8.8,7.81h3.8c5.21,0,8.88-.67,8.88-7.21v-18c0-6.68-3.6-7.34-8.81-7.34Z" transform="translate(0 -0.27)" style="fill:#fff;isolation:isolate;opacity:0.5"/><path d="M626.21,263.9a19.25,19.25,0,0,1,2.94-3.27,14.94,14.94,0,0,1,10.14-3.47h1.13V262h-1.07c-4,0-6.4.86-8.47,2.6a28.9,28.9,0,0,0-3.07,3.2c-1.07,1.27-2.27,2.8-3.67,4.54v27.09H618.4v-42.3h4.81l.66,10Z" transform="translate(0 -0.27)" style="fill:#fff;isolation:isolate;opacity:0.5"/><path d="M675.91,270.17c0-4.94-2.6-7.81-7.33-7.81-5.41,0-11.88,4.07-14.42,7.87v30.16h-5.67V259h4.74l.47,6.34a23.57,23.57,0,0,1,16.48-7.54c7.07,0,11.54,4.67,11.54,12.35v30.29H676Z" transform="translate(0 -0.27)" style="fill:#fff;isolation:isolate;opacity:0.5"/><path d="M410.18,296.65l-18.61-54.57h6.2l16.55,49.5,16.28-49.5h6.2l-18.48,54.57Z" transform="translate(0 -0.27)" style="fill:#fff"/><path d="M460.55,242h18.82v4.87H461.49c-6.34,0-10.48.53-10.48,8v29c0,7.81,3.94,7.88,10.48,7.88h17.88v4.93H460.55c-8.54,0-15.28-2.33-15.28-12V254C445.27,244.28,452,242,460.55,242Z" transform="translate(0 -0.27)" style="fill:#fff"/><path d="M546.62,242c8.94,0,13.74,5.47,13.74,14.27,0,4.87-1.93,9.94-6.14,12.35,5.07,1.66,7,7.27,7,12.47,0,9.88-3,15.68-13.68,15.68h-23V242Zm7.94,14.34c0-5.94-2.61-9.54-8.68-9.54H530.27v19.68H547C552,266.5,554.56,260.69,554.56,256.29Zm.86,24.68c0-4.87-2.26-9.67-7.67-9.67H530.27v20.48h17.28c7,0,7.87-4.8,7.87-10.81Z" transform="translate(0 -0.27)" style="fill:#fff"/><path d="M604.13,266.43v18.28c0,7.94-5,11.94-14.68,11.94h-3.74c-9.67,0-14.54-4-14.54-11.94V266.43c0-8,4.87-12,14.54-12h3.74C599.06,254.35,604.13,258.49,604.13,266.43Zm-14.55-7.2h-3.93c-5.21,0-8.74.66-8.74,7.33v17.35c0,7.07,4.2,7.81,8.8,7.81h3.81c5.2,0,8.87-.67,8.87-7.21V266.56c0-6.67-3.54-7.33-8.81-7.33Z" transform="translate(0 -0.27)" style="fill:#fff"/><path d="M622.94,261.16a19.64,19.64,0,0,1,2.94-3.27A15,15,0,0,1,636,254.42h1.13v4.87H636c-4,0-6.41.87-8.47,2.6a26.51,26.51,0,0,0-3.07,3.21c-1.07,1.26-2.27,2.8-3.67,4.53v27h-5.74v-42.3h4.8l.67,10Z" transform="translate(0 -0.27)" style="fill:#fff"/><path d="M672.65,266.43c0-4.94-2.61-7.81-7.41-7.81-5.4,0-11.88,4.07-14.41,7.88v30.15h-5.67V255.29h4.74l.4,6.27A23.57,23.57,0,0,1,666.77,254c7.08,0,11.55,4.67,11.55,12.34v30.29h-5.74V266.43Z" transform="translate(0 -0.27)" style="fill:#fff"/><path d="M341.6,287.38c-3.87,4.34-8.08,6.67-13.55,6.67-11.47,0-18.68-9.61-18.68-24.62s7.34-24.35,18.95-24.35a15.59,15.59,0,0,1,11.81,5.54l2.53-3a19.25,19.25,0,0,0-14.41-6.68,21.73,21.73,0,0,0-17.41,8.28h0L258.73,268.5v4l50.17,14.81h0a21.19,21.19,0,0,0,18.88,10.88c7.08,0,12.15-2.94,16.35-7.87ZM262.74,270.5l44.9-16.15h0a36.12,36.12,0,0,0-3,15.22,37.93,37.93,0,0,0,2.14,13.07Z" transform="translate(0 -0.27)" style="fill:url(#名称未設定グラデーション_2)"/></svg>