<svg version="1.1" id="レイヤー_1" xmlns="http://www.w3.org/2000/svg" xmlns:xlink="http://www.w3.org/1999/xlink" x="0" y="0" viewBox="0 0 144.6 144.6" xml:space="preserve"><style></style><circle cx="72.3" cy="72.3" r="72.3" fill="#5865f2"/><defs><path id="SVGID_1_" d="M21.6 33h101.3v78.5H21.6z"/></defs><clipPath id="SVGID_00000063603534840660879390000008317406889257711007_"><use xlink:href="#SVGID_1_" overflow="visible"/></clipPath><g clip-path="url(#SVGID_00000063603534840660879390000008317406889257711007_)"><path d="M107.4 40c-6.5-3-13.4-5.1-20.6-6.4-.1 0-.3 0-.3.2-.9 1.6-1.9 3.7-2.6 5.3-7.8-1.2-15.5-1.2-23.2 0-.7-1.7-1.7-3.7-2.6-5.3-.1-.1-.2-.2-.3-.2-7.2 1.2-14.2 3.4-20.6 6.4-.1 0-.1.1-.1.1C23.9 59.8 20.3 78.9 22 97.8c0 .1.1.2.1.2 8.7 6.4 17.1 10.2 25.3 12.8.1 0 .3 0 .4-.1 1.9-2.7 3.7-5.5 5.2-8.4.1-.2 0-.4-.2-.4-2.8-1-5.4-2.3-7.9-3.8-.2-.1-.2-.4 0-.5.5-.4 1.1-.8 1.6-1.2.1-.1.2-.1.3 0 16.6 7.6 34.5 7.6 50.9 0 .1-.1.2 0 .3 0 .5.4 1 .8 1.6 1.2.2.1.2.4 0 .5-2.5 1.5-5.1 2.7-7.9 3.8-.2.1-.3.3-.2.5 1.5 2.9 3.3 5.8 5.2 8.4.1.1.2.2.4.1 8.3-2.6 16.7-6.4 25.3-12.8.1-.1.1-.1.1-.2 2.1-21.9-3.5-40.8-15-57.7 0-.1 0-.2-.1-.2zM55.5 86.3c-5 0-9.1-4.6-9.1-10.2s4-10.2 9.1-10.2 9.2 4.6 9.1 10.2c0 5.6-4.1 10.2-9.1 10.2zm33.6 0c-5 0-9.1-4.6-9.1-10.2s4-10.2 9.1-10.2 9.2 4.6 9.1 10.2c.1 5.6-3.9 10.2-9.1 10.2z" fill="#fff"/></g></svg>